<?xml version="1.0" encoding="UTF-8"?>
<svg version="1.1" xmlns="http://www.w3.org/2000/svg" width="512" height="512">
<path d="M0 0 C4.12615338 3.18413905 7.70699958 7.00256368 11.38103604 10.68661058 C12.34402645 11.6451448 13.30744549 12.60324856 14.27125418 13.56095999 C16.9110544 16.18661594 19.54460276 18.8184646 22.17711854 21.45142126 C25.02020833 24.29285974 27.86899649 27.1285757 30.7169888 29.96509874 C36.93908598 36.1643734 43.15373573 42.37107837 49.36696029 48.57924378 C53.24769144 52.45671546 57.13005233 56.33255245 61.01276135 60.20804346 C71.76669648 70.94241815 82.51905315 81.67836671 93.2646668 92.42107236 C94.29552147 93.45164568 94.29552147 93.45164568 95.34720149 94.50303866 C96.74032195 95.89579288 98.13344114 97.28854837 99.52655907 98.68130513 C100.21808573 99.37264898 100.90961238 100.06399282 101.62209439 100.77628648 C102.31446538 101.46847692 103.00683637 102.16066737 103.7201883 102.87383328 C114.94316211 114.09326427 126.1778324 125.30090291 137.41770633 136.50340053 C148.96250163 148.01011268 160.49791304 159.52616114 172.02383387 171.05177993 C178.49342777 177.52078935 184.96691536 183.98579061 191.45066571 190.4406141 C196.9704244 195.93585918 202.48148965 201.43964144 207.98147942 206.95467534 C210.78682461 209.76718873 213.59602639 212.57553699 216.41630101 215.37308633 C219.00047527 217.93663666 221.57273176 220.51155966 224.13617508 223.09583525 C225.50050097 224.46529566 226.87709634 225.82249914 228.25415599 227.17915446 C235.22500706 234.2455991 239.41429919 240.68107153 239.40334439 250.85807359 C239.01248758 263.09677743 233.1202937 269.94368114 224.84084439 278.42057359 C224.01971158 279.29197984 223.19857877 280.16338609 222.35256314 281.06119859 C213.75562269 289.99239023 206.54581985 295.5643465 194.02834439 296.79557359 C180.29697339 296.33696199 171.8265078 286.56390759 162.7795651 277.47954881 C161.62387556 276.32514091 161.62387556 276.32514091 160.44483876 275.14741164 C157.88305663 272.58726682 155.32484733 270.02358245 152.76662564 267.45988023 C150.92331942 265.61629173 149.07979256 263.7729238 147.23606229 261.92975938 C143.27686104 257.97108062 139.31948415 254.01058577 135.36336637 250.04882562 C129.64359251 244.32089937 123.92103526 238.59576048 118.19781089 232.87128215 C108.91068443 223.58197104 99.62578993 214.29043238 90.34230924 204.99747789 C81.32818655 195.9741659 72.31300652 186.95191246 63.2964108 177.93107164 C62.46171122 177.09597798 62.46171122 177.09597798 61.61014903 176.24401373 C58.81831002 173.45086962 56.0264503 170.65774621 53.23458028 167.86463308 C30.10012329 144.71982174 6.96929299 121.57138911 -16.15915561 98.42057359 C-19.177531 99.77300744 -21.26381733 101.27894737 -23.59071422 103.6200031 C-24.25435658 104.28274687 -24.91799895 104.94549063 -25.60175169 105.62831753 C-26.3225593 106.35836143 -27.04336691 107.08840532 -27.78601718 107.84057176 C-28.55825417 108.61462773 -29.33049116 109.3886837 -30.12612927 110.18619591 C-32.72083408 112.78933548 -35.30831974 115.39953607 -37.89597201 118.00968492 C-39.75176853 119.87422834 -41.60804233 121.73829682 -43.46475863 123.6019243 C-47.46733141 127.62050824 -51.46649658 131.64245729 -55.46364856 135.66643274 C-61.7858063 142.03052276 -68.11776678 148.38480917 -74.45123935 154.73763597 C-76.61892053 156.91219723 -78.78652557 159.08683437 -80.95409846 161.26150358 C-81.49581614 161.80499291 -82.03753382 162.34848224 -82.59566719 162.90844095 C-88.76172338 169.09499196 -94.92544487 175.28386702 -101.08835483 181.47355211 C-101.65168652 182.03932636 -102.21501822 182.60510061 -102.79542057 183.18801954 C-111.91709061 192.34966621 -121.03279981 201.51722723 -130.1471972 210.68610815 C-139.51054451 220.10494356 -148.88355265 229.51409425 -158.26469052 238.91521031 C-164.0471341 244.71070948 -169.82147121 250.51405504 -175.58553867 256.32783201 C-179.54005489 260.31513864 -183.50366889 264.2932495 -187.47445495 268.26435343 C-189.76265456 270.55331736 -192.04519264 272.84745995 -194.31960559 275.15013444 C-196.7917307 277.65172166 -199.27894722 280.13729933 -201.77039218 282.6196245 C-202.47781546 283.34297623 -203.18523875 284.06632795 -203.9140991 284.81159943 C-210.63723234 291.44840986 -218.11201295 295.99090895 -227.71774936 296.48697984 C-240.48230918 296.13978381 -248.30063531 288.82066915 -256.94235873 280.13834703 C-258.40672304 278.67300778 -259.89117533 277.23036019 -261.37790561 275.78776109 C-267.91324737 269.33927367 -272.35617129 263.81995091 -273.72556186 254.61197984 C-273.70538386 235.86662348 -262.32814154 226.43594496 -249.74741244 213.86838853 C-248.39170524 212.50822465 -248.39170524 212.50822465 -247.00861001 211.1205827 C-244.52879007 208.63279099 -242.04593261 206.14805132 -239.56249571 203.66387093 C-236.87358278 200.97309033 -234.18751723 198.27946959 -231.50102878 195.58626878 C-225.64232728 189.71405844 -219.77991615 183.84556119 -213.91666484 177.97789419 C-210.25173956 174.31019653 -206.58754816 170.64176629 -202.92348361 166.97320879 C-192.76470489 156.80225228 -182.60499057 146.63223239 -172.44181705 136.46566713 C-171.46867413 135.49219487 -171.46867413 135.49219487 -170.47587177 134.4990565 C-169.8256403 133.84860675 -169.17540883 133.19815701 -168.50547338 132.52799666 C-167.18804689 131.21012672 -165.87062196 129.89225523 -164.55319858 128.57438219 C-163.89972302 127.9206852 -163.24624746 127.26698821 -162.57296962 126.59348223 C-151.97227201 115.98883209 -141.37835256 105.37743807 -130.78731602 94.76314011 C-119.89591718 83.84801436 -108.99888817 72.93853597 -98.09620214 62.0346843 C-91.98175892 55.91932564 -85.86974068 49.8015868 -79.76393771 43.67760026 C-74.56879087 38.4670351 -69.36851045 33.2616622 -64.16152537 28.06292602 C-61.50748465 25.41278423 -58.85589517 22.76030934 -56.21084666 20.10118997 C-53.33898726 17.21419335 -50.45554853 14.33904077 -47.57089877 11.46482408 C-46.74335385 10.62922275 -45.91580893 9.79362143 -45.06318688 8.93269885 C-32.14045549 -3.88116163 -16.69018787 -11.30857977 0 0 Z " fill="#000000" transform="translate(273.1591556072235,110.57942640781403)"/>
</svg>
