<?xml version="1.0" encoding="UTF-8"?>
<svg version="1.1" xmlns="http://www.w3.org/2000/svg" width="512" height="512">
<path d="M0 0 C1.30072311 -0.00367669 2.60144622 -0.00735338 3.94158518 -0.01114148 C7.54145449 -0.02111662 11.14130713 -0.02487101 14.74118829 -0.02753079 C18.62827776 -0.03144726 22.5153542 -0.04102465 26.4024353 -0.04974365 C35.78492167 -0.06947085 45.16740905 -0.07956978 54.54991096 -0.08847144 C58.97480936 -0.09286072 63.39970657 -0.09822589 67.82460403 -0.10346031 C82.54531544 -0.12046929 97.26602612 -0.13496154 111.98674583 -0.14220905 C115.803552 -0.14411876 119.62035816 -0.14603912 123.43716431 -0.147995 C124.38574325 -0.14847874 125.33432218 -0.14896248 126.31164594 -0.14946087 C141.66422055 -0.15775409 157.01671707 -0.18308051 172.36925761 -0.21557567 C188.15244606 -0.24870835 203.93559491 -0.26666344 219.71881831 -0.26985329 C228.57193703 -0.27201271 237.42494189 -0.28067771 246.27802658 -0.30631447 C253.82058166 -0.32810652 261.36299519 -0.33603035 268.90557818 -0.32634769 C272.74774914 -0.32182739 276.58962861 -0.32355519 280.43175888 -0.34310913 C309.95421747 -0.48490554 335.2657731 3.35420741 357.37417603 24.83467102 C373.96582672 41.63740453 382.28842114 64.23867365 382.26461792 87.65057373 C382.2690746 89.03940981 382.2690746 89.03940981 382.27362132 90.45630318 C382.2822565 93.54264018 382.28381218 96.62893816 382.28530884 99.71528625 C382.28994078 101.93516115 382.29496595 104.15503526 382.300354 106.37490845 C382.31344608 112.396045 382.31991704 118.41717041 382.32436466 124.43831897 C382.32730131 128.2061247 382.33140728 131.97392743 382.33586884 135.74173164 C382.34797277 146.1964664 382.35835577 156.65119937 382.36174393 167.10594082 C382.36196349 167.77399866 382.36218306 168.4420565 382.36240928 169.13035852 C382.36262756 169.79991905 382.36284583 170.46947959 382.36307073 171.15932983 C382.36351418 172.5158726 382.36396074 173.87241536 382.3644104 175.22895813 C382.36463183 175.90183501 382.36485326 176.57471189 382.3650814 177.26797897 C382.36902291 188.15211389 382.38645942 199.03618159 382.40976992 209.92029058 C382.43357039 221.12469777 382.44569257 232.32908058 382.44711185 243.53351551 C382.44815606 249.81225375 382.45398167 256.09089714 382.47193146 262.36961174 C382.48850969 268.28351064 382.49052061 274.1972444 382.48179245 280.11115837 C382.4810272 282.26969345 382.48529634 284.42823777 382.4952507 286.58675003 C382.62261988 315.95157591 376.45655949 340.00665269 355.74917603 361.83467102 C337.78687863 379.03347032 314.64787029 385.30537282 290.38711548 385.28761292 C288.47656813 385.2920696 288.47656813 385.2920696 286.52742386 385.29661632 C283.00769179 385.30464358 279.48798016 385.30647349 275.96824002 385.30721378 C272.16571592 385.30907185 268.36320223 385.31662298 264.5606842 385.323349 C256.25249881 385.33690292 247.94431826 385.34295258 239.63612366 385.34735966 C234.44248351 385.35012733 229.2488452 385.35436566 224.0552063 385.35886383 C209.65871294 385.37105317 195.26222106 385.38135281 180.86572266 385.38473892 C179.9451663 385.38495849 179.02460994 385.38517805 178.07615793 385.38540427 C177.15347136 385.38562255 176.23078479 385.38584083 175.28013802 385.38606572 C173.41060511 385.38650918 171.54107221 385.38695574 169.67153931 385.3874054 C168.74419786 385.38762683 167.81685642 385.38784826 166.86141372 385.38807639 C151.84773468 385.39202127 136.83410426 385.40946734 121.82044399 385.43276492 C106.38414214 385.45652378 90.94786464 385.46894285 75.51154423 385.47010684 C66.85355542 385.47102111 58.19562997 385.47671056 49.53765869 385.49492645 C42.16273181 385.51038884 34.78788786 385.51541195 27.41294783 385.50718835 C23.6560032 385.50330331 19.89922527 385.50410521 16.14230156 385.5182457 C-15.48080363 385.63027652 -42.44970423 381.36806519 -65.87582397 358.14717102 C-71.90971324 351.78548915 -76.41965659 344.69955039 -80.25082397 336.83467102 C-80.56060181 336.20867004 -80.87037964 335.58266907 -81.18954468 334.93769836 C-88.08084129 319.83497648 -88.45725713 304.8182741 -88.3934021 288.53755188 C-88.39883282 286.19502326 -88.40596077 283.85249807 -88.41464233 281.50997925 C-88.43276445 275.19185287 -88.42585446 268.87398988 -88.41312599 262.55585933 C-88.40397667 256.59362872 -88.41098865 250.63142134 -88.41683477 244.66919131 C-88.42820081 232.14254879 -88.41518921 219.61602398 -88.39363331 207.08940078 C-88.37576174 196.37251471 -88.37887459 185.65580202 -88.39730835 174.93891907 C-88.41877854 162.45114454 -88.42710691 149.96347273 -88.41485929 137.47568232 C-88.40856519 130.88078739 -88.40772591 124.28598869 -88.42100525 117.69109917 C-88.43262188 111.48975899 -88.42443207 105.28874391 -88.40142822 99.08743858 C-88.39617234 96.82163786 -88.39760088 94.55580942 -88.40647888 92.29001999 C-88.49953247 66.11361952 -81.87974547 43.72852907 -63.56332397 24.33467102 C-45.70032367 7.47274954 -24.27569931 -0.00368928 0 0 Z M-34.87582397 58.14717102 C-42.62810435 67.77130042 -45.02564137 78.0083825 -45.022995 90.12690735 C-45.02667168 91.03263929 -45.03034837 91.93837124 -45.03413647 92.87154961 C-45.04515199 95.90743959 -45.04901357 98.94329531 -45.05282593 101.97920227 C-45.05909228 104.15586454 -45.06573923 106.33252575 -45.07273865 108.50918579 C-45.09376425 115.65933998 -45.1041409 122.80949434 -45.11410522 129.95967102 C-45.1181536 132.42376212 -45.12227054 134.8878531 -45.12645531 137.35194397 C-45.14550512 148.93142109 -45.15973557 160.51089185 -45.16806728 172.09038162 C-45.17783372 185.44246137 -45.20413878 198.79435734 -45.24456817 212.14638042 C-45.2747666 222.47526277 -45.28953977 232.80409763 -45.29284829 243.13302326 C-45.29519485 249.29769574 -45.30410407 255.4621908 -45.32930946 261.6268158 C-45.35265971 267.43153542 -45.35679535 273.23596168 -45.34654808 279.04071617 C-45.34605427 281.16384548 -45.35232859 283.28698956 -45.36610413 285.41007423 C-45.46936843 302.27760187 -44.173346 315.94257368 -32.31332397 328.95967102 C-21.41753709 338.7379413 -11.68288462 341.45222991 2.76789856 341.41459656 C4.04356463 341.41912767 5.31923071 341.42365878 6.63355333 341.4283272 C10.16328932 341.44053084 13.69293034 341.44029986 17.2226826 341.43793845 C21.03401874 341.43752961 24.84532471 341.44857593 28.65664673 341.45805359 C36.12006248 341.47465064 43.58344665 341.48016257 51.04687931 341.48127834 C57.11593164 341.48222954 63.18497356 341.48634339 69.2540226 341.4926796 C86.47252927 341.51028932 103.69101104 341.51951901 120.90952679 341.51801865 C121.8373459 341.51793874 122.76516501 341.51785882 123.72109985 341.51777649 C124.65005604 341.51769473 125.57901223 341.51761297 126.5361186 341.51752873 C141.58491669 341.51671615 156.63361461 341.53584746 171.68238374 341.56405322 C187.14576012 341.59280661 202.60908769 341.60659213 218.07249147 341.60486567 C226.74938679 341.60420256 235.42617713 341.60965987 244.10304832 341.63122177 C251.49204431 341.64946602 258.88088773 341.65375444 266.26989653 341.64020292 C270.03650924 341.63368926 273.80282955 341.63349755 277.56941414 341.65090942 C281.6616739 341.66963139 285.75326168 341.65704385 289.84553528 341.64164734 C291.6127421 341.65707803 291.6127421 341.65707803 293.41565007 341.67282045 C306.54882352 341.5639855 317.2620685 337.47361847 326.90151978 328.49092102 C335.17164917 319.56844045 338.4373551 308.6424474 338.38487244 296.75488281 C338.38869798 295.82899111 338.39252353 294.90309941 338.396465 293.94915038 C338.40675577 290.85713996 338.40281028 287.76531659 338.39883423 284.67329407 C338.4031829 282.45206023 338.40836657 280.23082789 338.4143219 278.00959778 C338.42770728 271.98265664 338.428291 265.95577824 338.4257586 259.92882514 C338.42468844 254.89413633 338.42957348 249.85946018 338.43436402 244.82477409 C338.44609203 232.26527368 338.44523507 219.70581163 338.43880721 207.1463118 C338.43364056 196.2541464 338.44488817 185.3620705 338.46390543 174.4699228 C338.48330715 163.27122558 338.49124458 152.07256092 338.48778218 140.87384444 C338.48597069 134.5925276 338.4885921 128.3112927 338.50249672 122.02998924 C338.51508762 116.1210396 338.51311883 110.21226879 338.50008583 104.30332184 C338.49772316 102.13862612 338.5004436 99.97391776 338.50870895 97.80923653 C338.51920434 94.84608844 338.51105313 91.88353729 338.49839783 88.92041016 C338.50577211 88.07106815 338.5131464 87.22172614 338.52074414 86.34664649 C338.41487173 74.50081262 333.89743775 63.92941284 325.74917603 55.33467102 C313.58763941 43.99990554 299.72680614 42.9915728 283.7714386 43.01345825 C282.55123341 43.0111927 281.33102822 43.00892714 280.07384712 43.00659293 C276.70826027 43.00137911 273.3427271 43.00060437 269.97714007 43.0017873 C266.33899408 43.0019922 262.70085592 42.99646415 259.06271362 42.99172974 C251.94314847 42.98344207 244.82359159 42.98067576 237.70402201 42.98011736 C231.91438784 42.97964135 226.12475638 42.97758235 220.33512306 42.97441673 C203.90316198 42.96561565 187.47120742 42.96099655 171.03924396 42.96174721 C170.15437359 42.96178716 169.26950322 42.96182712 168.3578186 42.96186829 C167.02888374 42.96192961 167.02888374 42.96192961 165.6731017 42.96199217 C151.31638086 42.96239858 136.95968626 42.95282873 122.60297301 42.93872992 C107.84466632 42.92435162 93.08637241 42.91746052 78.32805854 42.9183237 C70.04917118 42.91865514 61.77031132 42.91593103 53.49143028 42.90514565 C46.44287671 42.89602154 39.39436313 42.89388109 32.3458062 42.90065507 C28.75343134 42.90391052 25.16113312 42.90401238 21.56876564 42.89530182 C17.66509681 42.8859342 13.76153872 42.89223819 9.85786438 42.89993286 C8.73556401 42.8947893 7.61326365 42.88964574 6.45695418 42.88434631 C-9.33506476 42.95286768 -23.81884394 46.05128012 -34.87582397 58.14717102 Z " fill="#000000" transform="translate(87.87582397460938,84.85282897949219)"/>
<path d="M0 0 C1.07854313 -0.00538554 2.15708626 -0.01077108 3.26831251 -0.01631981 C6.87093245 -0.0305912 10.47318453 -0.02349747 14.07582092 -0.01637268 C16.66335342 -0.02207664 19.25088341 -0.02904099 21.83840942 -0.03717041 C28.1302837 -0.05433608 34.42205801 -0.05520311 40.71394961 -0.04995751 C45.82953874 -0.04591055 50.94509839 -0.0473656 56.06068611 -0.05270576 C56.78969905 -0.05345419 57.518712 -0.05420261 58.26981624 -0.05497371 C59.75096039 -0.05650524 61.23210454 -0.05804359 62.71324868 -0.05958868 C76.59211617 -0.07330554 90.47092724 -0.06788167 104.34979344 -0.05640347 C117.0370523 -0.04647104 129.72416532 -0.05941332 142.41140168 -0.08333766 C155.45092667 -0.10774034 168.49038377 -0.11733372 181.52993113 -0.11068493 C188.84576157 -0.10719542 196.16147987 -0.10940708 203.47729301 -0.12693596 C210.35644617 -0.14321471 217.23531647 -0.13845813 224.1144619 -0.11963081 C226.63756507 -0.1159428 229.16068884 -0.1190595 231.68377304 -0.1295166 C235.13121876 -0.14271279 238.57774034 -0.13118973 242.02514648 -0.11352539 C243.51845321 -0.1279329 243.51845321 -0.1279329 245.04192775 -0.14263147 C252.14362037 -0.06789643 258.63742749 1.14112963 263.96063179 6.16697222 C269.66465016 12.48723674 270.58750274 17.39088112 270.45497131 25.8993988 C269.76484711 32.25281028 266.73654057 36.05292411 262.13856506 40.26268005 C255.77959168 44.67502893 249.87646585 44.67819644 242.39936829 44.65510559 C240.78517522 44.66190226 240.78517522 44.66190226 239.13837218 44.66883624 C235.53194753 44.68149779 231.92567355 44.6798587 228.31922913 44.6782074 C225.73361517 44.68419157 223.148003 44.69099685 220.56239319 44.69856262 C214.26725722 44.71515859 207.97215871 44.72067155 201.6770027 44.72178738 C196.55804206 44.7227386 191.43909376 44.7268526 186.32013702 44.73318863 C171.79712879 44.75079788 157.27415008 44.7600281 142.75113109 44.75852768 C141.96858391 44.75844777 141.18603673 44.75836786 140.379776 44.75828552 C139.59626981 44.75820376 138.81276363 44.758122 138.00551483 44.75803776 C125.31234295 44.75722514 112.61928981 44.77635752 99.92615226 44.80456226 C86.88330244 44.83331463 73.84051048 44.84710123 60.79762816 44.8453747 C53.47893365 44.84471157 46.1603636 44.85016996 38.84169769 44.8717308 C31.95683483 44.8918841 25.07223857 44.89124484 18.18736267 44.87669754 C15.66306423 44.87460696 13.1387494 44.87932509 10.61447906 44.89141846 C7.16291028 44.90688086 3.71224607 44.89755496 0.26069641 44.88215637 C-0.73329281 44.8924435 -1.72728202 44.90273062 -2.75139213 44.91332948 C-10.01978926 44.84189345 -17.28932355 43.65206619 -22.87243247 38.63765848 C-28.26517284 32.77229042 -29.39056444 27.23683103 -29.23643494 19.39549255 C-28.61562042 13.42015279 -26.31635013 9.81174105 -22.17393494 5.57518005 C-14.87028971 0.659265 -8.57883946 -0.05167452 0 0 Z " fill="#000000" transform="translate(113.92393493652344,169.61231994628906)"/>
<path d="M0 0 C0.94155636 -0.00507454 1.88311272 -0.01014909 2.85320109 -0.0153774 C4.40774193 -0.01612404 4.40774193 -0.01612404 5.99368763 -0.01688576 C7.09316552 -0.02126801 8.1926434 -0.02565027 9.3254388 -0.03016531 C13.02872497 -0.04357518 16.73198734 -0.0497371 20.43529224 -0.0558567 C23.08282114 -0.06375591 25.73034697 -0.07201958 28.37787342 -0.08063698 C36.33667739 -0.10515757 44.29548761 -0.11978756 52.25431773 -0.13269705 C54.50231091 -0.13640921 56.75030346 -0.14038242 58.99829602 -0.14444971 C72.95862288 -0.16968628 86.91895072 -0.19173895 100.87929535 -0.20417786 C104.11280477 -0.20710754 107.34631415 -0.21006921 110.57982349 -0.21308327 C111.38349449 -0.21382932 112.18716549 -0.21457537 113.01519016 -0.21534403 C126.03324602 -0.22799679 139.05116527 -0.261219 152.06915727 -0.3028851 C165.43507846 -0.34531405 178.80092974 -0.36887398 192.1669181 -0.37409842 C199.67119503 -0.37751144 207.17525848 -0.38925356 214.67946911 -0.42220116 C221.07067466 -0.4502161 227.46162296 -0.46119478 233.85288515 -0.4500057 C237.11278624 -0.44482255 240.37203641 -0.45041469 243.63188267 -0.47247124 C247.16984518 -0.49510669 250.70645106 -0.48689201 254.24442005 -0.47098732 C255.269627 -0.48486941 256.29483395 -0.49875149 257.35110778 -0.51305425 C263.96174461 -0.43984283 268.316622 0.87398055 273.43651295 5.13701439 C278.19746712 10.27383336 279.72639053 13.99906451 279.74901295 21.01201439 C279.76577076 22.20568626 279.78252857 23.39935814 279.7997942 24.62920189 C279.14231965 30.97771955 276.23860075 35.08191802 271.43651295 39.13701439 C265.23758169 43.2626693 259.69796439 43.70948629 252.39195728 43.64494896 C250.75470825 43.6543089 250.75470825 43.6543089 249.08438349 43.66385794 C245.43786642 43.67977458 241.792019 43.6671882 238.14549732 43.65459251 C235.52678507 43.66001419 232.90807587 43.66713709 230.28937244 43.67583275 C223.92159977 43.69359058 217.55401601 43.68979029 211.18623602 43.67818218 C206.00961074 43.66913731 200.83303828 43.66792841 195.65640736 43.67227745 C194.91877961 43.67289038 194.18115186 43.67350331 193.42117175 43.67413482 C191.92255086 43.67541376 190.42392998 43.67671062 188.92530912 43.67802519 C174.8828763 43.68942296 160.84054803 43.67632991 146.79813236 43.65482372 C134.75713005 43.63695344 122.71628201 43.64005778 110.67528248 43.65849876 C96.68204825 43.67991969 82.68890559 43.6883244 68.69565725 43.67604971 C67.20264436 43.67477555 65.70963146 43.67351807 64.21661854 43.67227745 C63.4820867 43.67166035 62.74755485 43.67104325 61.99076447 43.67040744 C56.82220146 43.6669582 51.65369669 43.67277368 46.48514271 43.68219566 C39.52472455 43.69460557 32.56460227 43.68573127 25.60421276 43.66261864 C23.05005534 43.65733062 20.49587339 43.65884685 17.94172573 43.6676693 C14.45450935 43.67860395 10.96822561 43.66488459 7.48106861 43.64494896 C6.47094511 43.65387185 5.4608216 43.66279473 4.42008829 43.67198801 C-2.7302178 43.59273201 -8.11027979 42.1169056 -13.58692455 37.39092064 C-14.03294018 36.83275658 -14.4789558 36.27459251 -14.93848705 35.69951439 C-15.39997143 35.14392845 -15.8614558 34.58834251 -16.33692455 34.01592064 C-20.03894718 28.34498789 -20.41067961 22.72923146 -19.56348705 16.13701439 C-17.30620968 9.01248267 -13.99932014 4.83165931 -7.56348705 1.13701439 C-4.7154956 0.1876839 -2.95288946 0.00844723 0 0 Z " fill="#000000" transform="translate(104.56348705291748,255.8629856109619)"/>
<path d="M0 0 C1.08752495 -0.00523668 2.17504989 -0.01047336 3.29553014 -0.01586872 C6.94651288 -0.03089292 10.59735576 -0.03157442 14.24836731 -0.03224182 C16.86339048 -0.03986173 19.4784114 -0.04828893 22.09342957 -0.0574646 C29.20308171 -0.08030042 36.31270399 -0.08823383 43.42238784 -0.09329104 C47.86401739 -0.09655002 52.3056383 -0.10307375 56.74726295 -0.11029243 C69.05138336 -0.1298573 81.35549572 -0.14626191 93.65963268 -0.14916897 C94.44679366 -0.14935654 95.23395464 -0.14954411 96.04496898 -0.14973736 C97.64065635 -0.15010361 99.23634372 -0.1504673 100.83203109 -0.15082847 C101.62410466 -0.15101128 102.41617823 -0.1511941 103.23225403 -0.15138245 C104.02529756 -0.151563 104.81834109 -0.15174354 105.63541625 -0.15192956 C118.48063937 -0.15546991 131.32569471 -0.18248403 144.17085966 -0.21988034 C157.36736003 -0.25799114 170.56377722 -0.27732665 183.76033384 -0.27762848 C191.16626662 -0.27821246 198.5719993 -0.28666602 205.97788048 -0.31562614 C212.94566701 -0.34274828 219.9130516 -0.34402124 226.88087082 -0.3279705 C229.43581187 -0.32615458 231.99077561 -0.33285953 234.54566765 -0.34878922 C238.03905119 -0.36923929 241.5310477 -0.35870202 245.02441406 -0.34057617 C246.03075824 -0.35377614 247.03710243 -0.36697611 248.07394189 -0.38057607 C255.06258793 -0.29799716 260.51506194 1.30480636 266.32966614 5.27415466 C272.23485022 11.45570111 272.74577089 17.53147594 272.66950989 25.75071716 C272.10583045 31.59484186 269.90884067 35.0279589 265.54450989 38.82884216 C261.30973797 42.01166437 258.00180281 43.39756821 252.77620983 43.40558243 C251.83690347 43.40942357 250.89759711 43.41326472 249.92982692 43.41722226 C248.37907614 43.41592254 248.37907614 43.41592254 246.79699707 43.41459656 C245.15178887 43.41905324 245.15178887 43.41905324 243.47334415 43.42359996 C239.77920362 43.43230723 236.08509542 43.43379692 232.39094543 43.43528748 C229.75002386 43.43991419 227.10910526 43.44491789 224.46818542 43.45033264 C217.28017461 43.46391869 210.09216938 43.46994107 202.90414786 43.4743433 C198.41666594 43.4771052 193.92918617 43.48134246 189.4417057 43.48584747 C177.01927545 43.49804038 164.59684693 43.50833973 152.17441082 43.51172256 C151.37923813 43.51194213 150.58406544 43.5121617 149.7647966 43.51238792 C148.96771265 43.51260619 148.1706287 43.51282447 147.34939069 43.51304936 C145.73417326 43.51349283 144.11895583 43.51393939 142.5037384 43.51438904 C141.7025334 43.51461047 140.90132839 43.5148319 140.07584444 43.51506004 C127.09204425 43.51900846 114.10830016 43.53646372 101.12452164 43.55974856 C87.79702919 43.58345706 74.46956492 43.59592418 61.14205104 43.59709048 C53.65802093 43.59800751 46.17406393 43.60376689 38.69005394 43.6219101 C32.31749607 43.63730432 25.9450339 43.64243558 19.57246097 43.63417199 C16.32106106 43.63026306 13.0698944 43.63283618 9.81851006 43.64522934 C6.29326833 43.65788007 2.76852395 43.65210907 -0.75671387 43.64164734 C-1.78385555 43.64970374 -2.81099723 43.65776015 -3.86926442 43.66606069 C-10.67838505 43.61868486 -14.946283 42.54419704 -20.29533386 38.08665466 C-25.37787145 32.06786016 -27.39045746 26.90800508 -27.04924011 18.94993591 C-26.07984177 12.10418476 -22.76883237 7.83624855 -17.54924011 3.50071716 C-11.87317151 -0.20465819 -6.57892032 -0.01561541 0 0 Z " fill="#000000" transform="translate(111.67033386230469,340.72584533691406)"/>
</svg>
