<?xml version="1.0" encoding="UTF-8"?>
<svg version="1.1" xmlns="http://www.w3.org/2000/svg" width="512" height="512">
<path d="M0 0 C0.97812346 -0.00453111 1.95624691 -0.00906223 2.96401048 -0.01373065 C6.23877078 -0.02638225 9.51336494 -0.02475376 12.78814697 -0.02310181 C15.13731093 -0.02908661 17.48647292 -0.03589204 19.83563232 -0.04345703 C26.21592079 -0.06112994 32.59615561 -0.06581299 38.97646618 -0.0670886 C43.63272544 -0.06874866 48.28897277 -0.07454809 52.94522782 -0.08076156 C65.47105775 -0.09736719 77.99685927 -0.10484666 90.5226998 -0.10342209 C91.23355909 -0.10334218 91.94441837 -0.10326227 92.67681885 -0.10317993 C93.744416 -0.10305729 93.744416 -0.10305729 94.83358076 -0.10293217 C106.36278305 -0.10211963 117.89185457 -0.12125039 129.42101905 -0.14945666 C141.27057663 -0.17821704 153.12007051 -0.1919952 164.96966386 -0.19026911 C171.61766058 -0.18960625 178.26553684 -0.19544412 184.91350555 -0.21662521 C191.168021 -0.23600845 197.42224735 -0.23613113 203.67677307 -0.22159195 C205.96886366 -0.21950283 208.26097233 -0.22421081 210.55303192 -0.23631287 C213.68933832 -0.25179639 216.8246518 -0.24243595 219.9609375 -0.22705078 C221.31184719 -0.24248147 221.31184719 -0.24248147 222.69004798 -0.25822389 C231.42692654 -0.16393163 239.25614393 2.5430065 245.70318604 8.56430054 C253.09684894 16.78786439 254.8163367 25.50188189 254.54693604 36.27914429 C254.07260969 44.66483884 250.4597408 51.67036254 244.23443604 57.26742554 C236.66373768 62.9605907 229.80344746 64.56663701 220.46214294 64.53485107 C219.48331392 64.53938219 218.5044849 64.5439133 217.49599439 64.54858172 C214.21890014 64.5612333 210.94197192 64.55960484 207.66485596 64.55795288 C205.31406948 64.56393764 202.96328497 64.57074307 200.61250305 64.57830811 C194.22814964 64.59598044 187.84384983 64.60066401 181.45947433 64.60193968 C176.80092111 64.60359963 172.14237982 64.60939881 167.48383081 64.61561263 C154.95322686 64.63221753 142.42265131 64.63969776 129.89203676 64.63827316 C129.18091475 64.63819325 128.46979274 64.63811334 127.73712158 64.63803101 C126.66913097 64.63790836 126.66913097 64.63790836 125.57956479 64.63778324 C114.04322047 64.63697051 102.50700677 64.65610646 90.97070023 64.68430774 C79.11549742 64.7130591 67.26035826 64.7268468 55.40511972 64.72512019 C48.75324252 64.72445706 42.1014857 64.73030602 35.44963646 64.75147629 C29.1926618 64.7708461 22.93597619 64.77099142 16.67899132 64.75644302 C14.38486814 64.7543523 12.09072693 64.75907142 9.79663467 64.77116394 C6.65997756 64.78662457 3.52431609 64.77730211 0.38768005 64.76190186 C-0.51583925 64.77218898 -1.41935855 64.78247611 -2.35025722 64.79307497 C-11.79098093 64.6909479 -19.94442492 60.76091162 -26.76556396 54.26742554 C-33.84542326 45.28283252 -34.89417833 35.34195401 -33.76556396 24.26742554 C-31.81318308 15.69247995 -27.06766525 9.24867142 -19.76556396 4.45492554 C-13.32118981 0.52117215 -7.36436302 -0.02507773 0 0 Z " fill="#000000" transform="translate(225.76556396484375,383.7325744628906)"/>
<path d="M0 0 C0.97812346 -0.00453111 1.95624691 -0.00906223 2.96401048 -0.01373065 C6.23877078 -0.02638225 9.51336494 -0.02475376 12.78814697 -0.02310181 C15.13731093 -0.02908661 17.48647292 -0.03589204 19.83563232 -0.04345703 C26.21592079 -0.06112994 32.59615561 -0.06581299 38.97646618 -0.0670886 C43.63272544 -0.06874866 48.28897277 -0.07454809 52.94522782 -0.08076156 C65.47105775 -0.09736719 77.99685927 -0.10484666 90.5226998 -0.10342209 C91.23355909 -0.10334218 91.94441837 -0.10326227 92.67681885 -0.10317993 C93.744416 -0.10305729 93.744416 -0.10305729 94.83358076 -0.10293217 C106.36278305 -0.10211963 117.89185457 -0.12125039 129.42101905 -0.14945666 C141.27057663 -0.17821704 153.12007051 -0.1919952 164.96966386 -0.19026911 C171.61766058 -0.18960625 178.26553684 -0.19544412 184.91350555 -0.21662521 C191.168021 -0.23600845 197.42224735 -0.23613113 203.67677307 -0.22159195 C205.96886366 -0.21950283 208.26097233 -0.22421081 210.55303192 -0.23631287 C213.68933832 -0.25179639 216.8246518 -0.24243595 219.9609375 -0.22705078 C221.31184719 -0.24248147 221.31184719 -0.24248147 222.69004798 -0.25822389 C231.42692654 -0.16393163 239.25614393 2.5430065 245.70318604 8.56430054 C253.09684894 16.78786439 254.8163367 25.50188189 254.54693604 36.27914429 C254.07260969 44.66483884 250.4597408 51.67036254 244.23443604 57.26742554 C236.66373768 62.9605907 229.80344746 64.56663701 220.46214294 64.53485107 C219.48331392 64.53938219 218.5044849 64.5439133 217.49599439 64.54858172 C214.21890014 64.5612333 210.94197192 64.55960484 207.66485596 64.55795288 C205.31406948 64.56393764 202.96328497 64.57074307 200.61250305 64.57830811 C194.22814964 64.59598044 187.84384983 64.60066401 181.45947433 64.60193968 C176.80092111 64.60359963 172.14237982 64.60939881 167.48383081 64.61561263 C154.95322686 64.63221753 142.42265131 64.63969776 129.89203676 64.63827316 C129.18091475 64.63819325 128.46979274 64.63811334 127.73712158 64.63803101 C126.66913097 64.63790836 126.66913097 64.63790836 125.57956479 64.63778324 C114.04322047 64.63697051 102.50700677 64.65610646 90.97070023 64.68430774 C79.11549742 64.7130591 67.26035826 64.7268468 55.40511972 64.72512019 C48.75324252 64.72445706 42.1014857 64.73030602 35.44963646 64.75147629 C29.1926618 64.7708461 22.93597619 64.77099142 16.67899132 64.75644302 C14.38486814 64.7543523 12.09072693 64.75907142 9.79663467 64.77116394 C6.65997756 64.78662457 3.52431609 64.77730211 0.38768005 64.76190186 C-0.51583925 64.77218898 -1.41935855 64.78247611 -2.35025722 64.79307497 C-11.79098093 64.6909479 -19.94442492 60.76091162 -26.76556396 54.26742554 C-33.84542326 45.28283252 -34.89417833 35.34195401 -33.76556396 24.26742554 C-31.81318308 15.69247995 -27.06766525 9.24867142 -19.76556396 4.45492554 C-13.32118981 0.52117215 -7.36436302 -0.02507773 0 0 Z " fill="#000000" transform="translate(225.76556396484375,223.73257446289063)"/>
<path d="M0 0 C0.97812346 -0.00453111 1.95624691 -0.00906223 2.96401048 -0.01373065 C6.23877078 -0.02638225 9.51336494 -0.02475376 12.78814697 -0.02310181 C15.13731093 -0.02908661 17.48647292 -0.03589204 19.83563232 -0.04345703 C26.21592079 -0.06112994 32.59615561 -0.06581299 38.97646618 -0.0670886 C43.63272544 -0.06874866 48.28897277 -0.07454809 52.94522782 -0.08076156 C65.47105775 -0.09736719 77.99685927 -0.10484666 90.5226998 -0.10342209 C91.23355909 -0.10334218 91.94441837 -0.10326227 92.67681885 -0.10317993 C93.744416 -0.10305729 93.744416 -0.10305729 94.83358076 -0.10293217 C106.36278305 -0.10211963 117.89185457 -0.12125039 129.42101905 -0.14945666 C141.27057663 -0.17821704 153.12007051 -0.1919952 164.96966386 -0.19026911 C171.61766058 -0.18960625 178.26553684 -0.19544412 184.91350555 -0.21662521 C191.168021 -0.23600845 197.42224735 -0.23613113 203.67677307 -0.22159195 C205.96886366 -0.21950283 208.26097233 -0.22421081 210.55303192 -0.23631287 C213.68933832 -0.25179639 216.8246518 -0.24243595 219.9609375 -0.22705078 C221.31184719 -0.24248147 221.31184719 -0.24248147 222.69004798 -0.25822389 C231.42692654 -0.16393163 239.25614393 2.5430065 245.70318604 8.56430054 C253.09684894 16.78786439 254.8163367 25.50188189 254.54693604 36.27914429 C254.07260969 44.66483884 250.4597408 51.67036254 244.23443604 57.26742554 C236.66373768 62.9605907 229.80344746 64.56663701 220.46214294 64.53485107 C219.48331392 64.53938219 218.5044849 64.5439133 217.49599439 64.54858172 C214.21890014 64.5612333 210.94197192 64.55960484 207.66485596 64.55795288 C205.31406948 64.56393764 202.96328497 64.57074307 200.61250305 64.57830811 C194.22814964 64.59598044 187.84384983 64.60066401 181.45947433 64.60193968 C176.80092111 64.60359963 172.14237982 64.60939881 167.48383081 64.61561263 C154.95322686 64.63221753 142.42265131 64.63969776 129.89203676 64.63827316 C129.18091475 64.63819325 128.46979274 64.63811334 127.73712158 64.63803101 C126.66913097 64.63790836 126.66913097 64.63790836 125.57956479 64.63778324 C114.04322047 64.63697051 102.50700677 64.65610646 90.97070023 64.68430774 C79.11549742 64.7130591 67.26035826 64.7268468 55.40511972 64.72512019 C48.75324252 64.72445706 42.1014857 64.73030602 35.44963646 64.75147629 C29.1926618 64.7708461 22.93597619 64.77099142 16.67899132 64.75644302 C14.38486814 64.7543523 12.09072693 64.75907142 9.79663467 64.77116394 C6.65997756 64.78662457 3.52431609 64.77730211 0.38768005 64.76190186 C-0.51583925 64.77218898 -1.41935855 64.78247611 -2.35025722 64.79307497 C-11.79098093 64.6909479 -19.94442492 60.76091162 -26.76556396 54.26742554 C-33.84542326 45.28283252 -34.89417833 35.34195401 -33.76556396 24.26742554 C-31.81318308 15.69247995 -27.06766525 9.24867142 -19.76556396 4.45492554 C-13.32118981 0.52117215 -7.36436302 -0.02507773 0 0 Z " fill="#000000" transform="translate(225.76556396484375,63.732574462890625)"/>
<path d="M0 0 C1.14764832 -0.01007584 1.14764832 -0.01007584 2.31848145 -0.02035522 C4.83510935 -0.03927297 7.35146957 -0.04325652 9.86816406 -0.04541016 C11.6292532 -0.0518434 13.39034128 -0.05857215 15.15142822 -0.06558228 C18.83990962 -0.07754021 22.52829747 -0.08126473 26.21679688 -0.08007812 C30.92185908 -0.07987525 35.62631514 -0.10715128 40.33123398 -0.14162254 C43.96887923 -0.16396434 47.60638041 -0.16791341 51.24408722 -0.16685867 C52.97748143 -0.16920469 54.71088021 -0.17797133 56.44420624 -0.19352341 C67.31862655 -0.28194366 76.1140033 0.23874846 85.38378906 6.47802734 C92.76255402 14.02449151 96.43784337 21.54131587 96.42431641 32.17260742 C96.43103363 32.93931259 96.43775085 33.70601776 96.44467163 34.49595642 C96.46358735 37.01739071 96.46757264 39.53855787 96.46972656 42.06005859 C96.47615927 43.82354336 96.48288799 45.58702708 96.48989868 47.35050964 C96.50185561 51.04318718 96.50558117 54.73577128 96.50439453 58.4284668 C96.50419151 63.14259471 96.53148355 67.85611868 96.56593895 72.57010365 C96.58826058 76.21199758 96.59223045 79.85374742 96.59117508 83.49570274 C96.5935235 85.23271451 96.60230397 86.9697307 96.61783981 88.70667458 C96.75805182 106.00265186 96.75805182 106.00265186 92.13378906 113.29052734 C91.75547943 113.93846756 91.3771698 114.58640778 90.98739624 115.25398254 C86.8160117 122.16168041 79.73861717 126.15436424 72.13378906 128.29052734 C69.47077376 128.48310278 66.91268702 128.58444044 64.25170898 128.58105469 C63.48500381 128.58777191 62.71829865 128.59448914 61.92835999 128.60140991 C59.4069257 128.62032563 56.88575854 128.62431092 54.36425781 128.62646484 C52.60077304 128.63289756 50.83728933 128.63962627 49.07380676 128.64663696 C45.38112923 128.65859389 41.68854513 128.66231945 37.99584961 128.66113281 C33.28172169 128.66092979 28.56819773 128.68822184 23.85421276 128.72267723 C20.21231882 128.74499886 16.57056898 128.74896874 12.92861366 128.74791336 C11.1916019 128.75026178 9.4545857 128.75904225 7.71764183 128.77457809 C-9.57833545 128.91479011 -9.57833545 128.91479011 -16.86621094 124.29052734 C-17.51415115 123.91221771 -18.16209137 123.53390808 -18.82966614 123.14413452 C-25.73768018 118.97255905 -29.72939688 111.89541655 -31.86621094 104.29052734 C-32.05875957 101.6327278 -32.16012485 99.08006549 -32.15673828 96.42431641 C-32.16345551 95.65921753 -32.17017273 94.89411865 -32.17709351 94.10583496 C-32.19601125 91.58920706 -32.19999481 89.07284683 -32.20214844 86.55615234 C-32.20858168 84.7950632 -32.21531043 83.03397512 -32.22232056 81.27288818 C-32.23427849 77.58440679 -32.23800301 73.89601893 -32.23681641 70.20751953 C-32.23661353 65.50245733 -32.26388956 60.79800126 -32.29836082 56.09308243 C-32.32070262 52.45543718 -32.32465169 48.81793599 -32.32359695 45.18022919 C-32.32594297 43.44683498 -32.33470961 41.71343619 -32.35026169 39.98011017 C-32.44587286 28.22131068 -32.00643948 17.85544376 -23.56933594 8.82177734 C-16.62900593 2.58184761 -9.30648445 -0.01186749 0 0 Z M0.13378906 32.29052734 C0.13378906 53.41052734 0.13378906 74.53052734 0.13378906 96.29052734 C21.25378906 96.29052734 42.37378906 96.29052734 64.13378906 96.29052734 C64.13378906 75.17052734 64.13378906 54.05052734 64.13378906 32.29052734 C43.01378906 32.29052734 21.89378906 32.29052734 0.13378906 32.29052734 Z " fill="#000000" transform="translate(63.8662109375,351.70947265625)"/>
<path d="M0 0 C1.14764832 -0.01007584 1.14764832 -0.01007584 2.31848145 -0.02035522 C4.83510935 -0.03927297 7.35146957 -0.04325652 9.86816406 -0.04541016 C11.6292532 -0.0518434 13.39034128 -0.05857215 15.15142822 -0.06558228 C18.83990962 -0.07754021 22.52829747 -0.08126473 26.21679688 -0.08007812 C30.92185908 -0.07987525 35.62631514 -0.10715128 40.33123398 -0.14162254 C43.96887923 -0.16396434 47.60638041 -0.16791341 51.24408722 -0.16685867 C52.97748143 -0.16920469 54.71088021 -0.17797133 56.44420624 -0.19352341 C67.31862655 -0.28194366 76.1140033 0.23874846 85.38378906 6.47802734 C92.76255402 14.02449151 96.43784337 21.54131587 96.42431641 32.17260742 C96.43103363 32.93931259 96.43775085 33.70601776 96.44467163 34.49595642 C96.46358735 37.01739071 96.46757264 39.53855787 96.46972656 42.06005859 C96.47615927 43.82354336 96.48288799 45.58702708 96.48989868 47.35050964 C96.50185561 51.04318718 96.50558117 54.73577128 96.50439453 58.4284668 C96.50419151 63.14259471 96.53148355 67.85611868 96.56593895 72.57010365 C96.58826058 76.21199758 96.59223045 79.85374742 96.59117508 83.49570274 C96.5935235 85.23271451 96.60230397 86.9697307 96.61783981 88.70667458 C96.75805182 106.00265186 96.75805182 106.00265186 92.13378906 113.29052734 C91.75547943 113.93846756 91.3771698 114.58640778 90.98739624 115.25398254 C86.8160117 122.16168041 79.73861717 126.15436424 72.13378906 128.29052734 C69.47077376 128.48310278 66.91268702 128.58444044 64.25170898 128.58105469 C63.48500381 128.58777191 62.71829865 128.59448914 61.92835999 128.60140991 C59.4069257 128.62032563 56.88575854 128.62431092 54.36425781 128.62646484 C52.60077304 128.63289756 50.83728933 128.63962627 49.07380676 128.64663696 C45.38112923 128.65859389 41.68854513 128.66231945 37.99584961 128.66113281 C33.28172169 128.66092979 28.56819773 128.68822184 23.85421276 128.72267723 C20.21231882 128.74499886 16.57056898 128.74896874 12.92861366 128.74791336 C11.1916019 128.75026178 9.4545857 128.75904225 7.71764183 128.77457809 C-9.57833545 128.91479011 -9.57833545 128.91479011 -16.86621094 124.29052734 C-17.51415115 123.91221771 -18.16209137 123.53390808 -18.82966614 123.14413452 C-25.73768018 118.97255905 -29.72939688 111.89541655 -31.86621094 104.29052734 C-32.05875957 101.6327278 -32.16012485 99.08006549 -32.15673828 96.42431641 C-32.16345551 95.65921753 -32.17017273 94.89411865 -32.17709351 94.10583496 C-32.19601125 91.58920706 -32.19999481 89.07284683 -32.20214844 86.55615234 C-32.20858168 84.7950632 -32.21531043 83.03397512 -32.22232056 81.27288818 C-32.23427849 77.58440679 -32.23800301 73.89601893 -32.23681641 70.20751953 C-32.23661353 65.50245733 -32.26388956 60.79800126 -32.29836082 56.09308243 C-32.32070262 52.45543718 -32.32465169 48.81793599 -32.32359695 45.18022919 C-32.32594297 43.44683498 -32.33470961 41.71343619 -32.35026169 39.98011017 C-32.44587286 28.22131068 -32.00643948 17.85544376 -23.56933594 8.82177734 C-16.62900593 2.58184761 -9.30648445 -0.01186749 0 0 Z M0.13378906 32.29052734 C0.13378906 53.41052734 0.13378906 74.53052734 0.13378906 96.29052734 C21.25378906 96.29052734 42.37378906 96.29052734 64.13378906 96.29052734 C64.13378906 75.17052734 64.13378906 54.05052734 64.13378906 32.29052734 C43.01378906 32.29052734 21.89378906 32.29052734 0.13378906 32.29052734 Z " fill="#000000" transform="translate(63.8662109375,191.70947265625)"/>
<path d="M0 0 C1.14764832 -0.01007584 1.14764832 -0.01007584 2.31848145 -0.02035522 C4.83510935 -0.03927297 7.35146957 -0.04325652 9.86816406 -0.04541016 C11.6292532 -0.0518434 13.39034128 -0.05857215 15.15142822 -0.06558228 C18.83990962 -0.07754021 22.52829747 -0.08126473 26.21679688 -0.08007812 C30.92185908 -0.07987525 35.62631514 -0.10715128 40.33123398 -0.14162254 C43.96887923 -0.16396434 47.60638041 -0.16791341 51.24408722 -0.16685867 C52.97748143 -0.16920469 54.71088021 -0.17797133 56.44420624 -0.19352341 C67.31862655 -0.28194366 76.1140033 0.23874846 85.38378906 6.47802734 C92.76255402 14.02449151 96.43784337 21.54131587 96.42431641 32.17260742 C96.43103363 32.93931259 96.43775085 33.70601776 96.44467163 34.49595642 C96.46358735 37.01739071 96.46757264 39.53855787 96.46972656 42.06005859 C96.47615927 43.82354336 96.48288799 45.58702708 96.48989868 47.35050964 C96.50185561 51.04318718 96.50558117 54.73577128 96.50439453 58.4284668 C96.50419151 63.14259471 96.53148355 67.85611868 96.56593895 72.57010365 C96.58826058 76.21199758 96.59223045 79.85374742 96.59117508 83.49570274 C96.5935235 85.23271451 96.60230397 86.9697307 96.61783981 88.70667458 C96.75805182 106.00265186 96.75805182 106.00265186 92.13378906 113.29052734 C91.75547943 113.93846756 91.3771698 114.58640778 90.98739624 115.25398254 C86.8160117 122.16168041 79.73861717 126.15436424 72.13378906 128.29052734 C69.47077376 128.48310278 66.91268702 128.58444044 64.25170898 128.58105469 C63.48500381 128.58777191 62.71829865 128.59448914 61.92835999 128.60140991 C59.4069257 128.62032563 56.88575854 128.62431092 54.36425781 128.62646484 C52.60077304 128.63289756 50.83728933 128.63962627 49.07380676 128.64663696 C45.38112923 128.65859389 41.68854513 128.66231945 37.99584961 128.66113281 C33.28172169 128.66092979 28.56819773 128.68822184 23.85421276 128.72267723 C20.21231882 128.74499886 16.57056898 128.74896874 12.92861366 128.74791336 C11.1916019 128.75026178 9.4545857 128.75904225 7.71764183 128.77457809 C-9.57833545 128.91479011 -9.57833545 128.91479011 -16.86621094 124.29052734 C-17.51415115 123.91221771 -18.16209137 123.53390808 -18.82966614 123.14413452 C-25.73768018 118.97255905 -29.72939688 111.89541655 -31.86621094 104.29052734 C-32.05875957 101.6327278 -32.16012485 99.08006549 -32.15673828 96.42431641 C-32.16345551 95.65921753 -32.17017273 94.89411865 -32.17709351 94.10583496 C-32.19601125 91.58920706 -32.19999481 89.07284683 -32.20214844 86.55615234 C-32.20858168 84.7950632 -32.21531043 83.03397512 -32.22232056 81.27288818 C-32.23427849 77.58440679 -32.23800301 73.89601893 -32.23681641 70.20751953 C-32.23661353 65.50245733 -32.26388956 60.79800126 -32.29836082 56.09308243 C-32.32070262 52.45543718 -32.32465169 48.81793599 -32.32359695 45.18022919 C-32.32594297 43.44683498 -32.33470961 41.71343619 -32.35026169 39.98011017 C-32.44587286 28.22131068 -32.00643948 17.85544376 -23.56933594 8.82177734 C-16.62900593 2.58184761 -9.30648445 -0.01186749 0 0 Z M0.13378906 32.29052734 C0.13378906 53.41052734 0.13378906 74.53052734 0.13378906 96.29052734 C21.25378906 96.29052734 42.37378906 96.29052734 64.13378906 96.29052734 C64.13378906 75.17052734 64.13378906 54.05052734 64.13378906 32.29052734 C43.01378906 32.29052734 21.89378906 32.29052734 0.13378906 32.29052734 Z " fill="#000000" transform="translate(63.8662109375,31.70947265625)"/>
</svg>
