<?xml version="1.0" encoding="UTF-8"?>
<svg version="1.1" xmlns="http://www.w3.org/2000/svg" width="512" height="512">
<path d="M0 0 C14.82034258 11.32648678 25.28854434 26.54627227 28.34765625 45.1875 C28.4399672 47.45000842 28.47850102 49.714958 28.48187733 51.97934628 C28.48422956 52.65289387 28.48658179 53.32644147 28.4890053 54.0203996 C28.49567235 56.28167731 28.49523777 58.54289726 28.49482727 60.80418396 C28.49812733 62.44019297 28.5018532 64.07620117 28.50596875 65.71220833 C28.51598083 70.2117106 28.51970428 74.71119953 28.52235806 79.21071136 C28.52626351 84.06233974 28.53584174 88.91395758 28.54457092 93.76557922 C28.56432942 105.48483526 28.57440116 117.20409215 28.58329871 128.92336068 C28.58768297 134.44396956 28.59304946 139.96457749 28.59828758 145.48518562 C28.6152999 163.84047337 28.62979339 182.19576053 28.63703632 200.55105495 C28.63894618 205.31390318 28.64086652 210.0767514 28.64282227 214.83959961 C28.64330601 216.02336443 28.64378975 217.20712926 28.64428815 218.42676575 C28.65258586 237.59673733 28.67791841 256.76664646 28.71040294 275.93659078 C28.74349178 295.62389397 28.76148677 315.31116545 28.76468056 334.99849659 C28.76684406 346.04974653 28.77556918 357.10090541 28.80114174 368.15212822 C28.8228737 377.56532366 28.83088688 386.97840593 28.82117496 396.39162361 C28.8166374 401.1913378 28.81848477 405.99081862 28.8379364 410.79050064 C28.85561997 415.19208896 28.85452846 419.59327455 28.83903911 423.99486745 C28.83667089 425.57975291 28.84094545 427.16466664 28.85286776 428.74950903 C28.98795805 447.90746903 23.54270835 464.8889471 10.34765625 479.1875 C-3.69926077 493.39561115 -20.17318854 500.37441051 -40.08984375 500.5 C-60.12023424 500.52696283 -76.68227983 494.02176093 -91.0625 479.8046875 C-102.25699885 467.88133146 -109.7618273 452.98639239 -109.78656483 436.39565372 C-109.78891706 435.72210613 -109.79126929 435.04855853 -109.7936928 434.3546004 C-109.80035985 432.09332269 -109.79992527 429.83210274 -109.79951477 427.57081604 C-109.80281483 425.93480703 -109.8065407 424.29879883 -109.81065625 422.66279167 C-109.82066833 418.1632894 -109.82439178 413.66380047 -109.82704556 409.16428864 C-109.83095101 404.31266026 -109.84052924 399.46104242 -109.84925842 394.60942078 C-109.86901692 382.89016474 -109.87908866 371.17090785 -109.88798621 359.45163932 C-109.89237047 353.93103044 -109.89773696 348.41042251 -109.90297508 342.88981438 C-109.9199874 324.53452663 -109.93448089 306.17923947 -109.94172382 287.82394505 C-109.94363368 283.06109682 -109.94555402 278.2982486 -109.94750977 273.53540039 C-109.94799351 272.35163557 -109.94847725 271.16787074 -109.94897565 269.94823425 C-109.95727336 250.77826267 -109.98260591 231.60835354 -110.01509044 212.43840922 C-110.04817928 192.75110603 -110.06617427 173.06383455 -110.06936806 153.37650341 C-110.07153156 142.32525347 -110.08025668 131.27409459 -110.10582924 120.22287178 C-110.1275612 110.80967634 -110.13557438 101.39659407 -110.12586246 91.98337639 C-110.1213249 87.1836622 -110.12317227 82.38418138 -110.1426239 77.58449936 C-110.16030747 73.18291104 -110.15921596 68.78172545 -110.14372661 64.38013255 C-110.14135839 62.79524709 -110.14563295 61.21033336 -110.15755526 59.62549097 C-110.29264555 40.46753097 -104.84739585 23.4860529 -91.65234375 9.1875 C-67.28760338 -15.45683575 -28.85695233 -19.71962574 0 0 Z M-62.65234375 39.1875 C-66.72945643 45.09989417 -68.77481363 49.27374388 -68.78935814 56.58825016 C-68.79200997 57.24380472 -68.79466179 57.89935928 -68.79739398 58.57477912 C-68.80509612 60.7868513 -68.8056465 62.99886805 -68.8062439 65.21095276 C-68.81025793 66.80683863 -68.81469605 68.40272348 -68.81952345 69.9986071 C-68.83150161 74.39633282 -68.83714029 78.79404757 -68.84170461 83.19178641 C-68.84765605 87.93021785 -68.8592671 92.66863614 -68.86999512 97.40705872 C-68.89453044 108.85719379 -68.90914836 120.30733322 -68.92205518 131.75748649 C-68.92576643 134.99099222 -68.92973972 138.22449751 -68.93380785 141.45800281 C-68.95904473 161.53283972 -68.98110031 181.60767731 -68.993536 201.68252659 C-68.99646575 206.33367986 -68.9994274 210.98483311 -69.00244141 215.63598633 C-69.00318746 216.79202525 -69.00393351 217.94806417 -69.00470217 219.13913458 C-69.01735543 237.86576179 -69.05057736 256.59229405 -69.09224324 275.31887687 C-69.13466037 294.54053171 -69.15823082 313.76213793 -69.16345656 332.98383945 C-69.16687103 343.77791682 -69.17863041 354.57184583 -69.2115593 365.36587715 C-69.23955795 374.55893285 -69.25055994 383.75180978 -69.23936383 392.94490481 C-69.23417665 397.63479951 -69.23706789 402.32431983 -69.26182938 407.01416016 C-69.28432547 411.31083957 -69.28357937 415.60687576 -69.2646255 419.90356647 C-69.26182598 421.4547973 -69.26742148 423.00607178 -69.28243844 424.55723245 C-69.38256588 435.5769545 -67.86327423 443.63909157 -60.40234375 452.0625 C-53.39002208 458.41413183 -46.47318837 459.93615338 -37.08984375 459.6328125 C-28.51363718 458.52180392 -21.93458742 453.88006245 -16.65234375 447.1875 C-11.66590622 439.54348618 -12.08660348 431.22045862 -12.13768005 422.44252014 C-12.13235006 420.84145053 -12.12528177 419.24038593 -12.116633 417.6393308 C-12.09803872 413.25505227 -12.10429951 408.87111227 -12.11478603 404.48681986 C-12.12178716 399.75256146 -12.10577318 395.01837195 -12.0927887 390.28413391 C-12.07115883 381.01553608 -12.07127299 371.74706108 -12.07941424 362.47844631 C-12.08571685 354.94440928 -12.0845748 347.41040804 -12.07814217 339.87637138 C-12.07724051 338.80363786 -12.07633886 337.73090434 -12.07540988 336.62566374 C-12.07355866 334.44633885 -12.0716961 332.26701397 -12.06982232 330.08768909 C-12.05324739 309.65627184 -12.06196047 289.22492365 -12.0788079 268.79351055 C-12.0935047 250.10604989 -12.07887616 231.41875003 -12.05003773 212.73131008 C-12.02063733 193.53656868 -12.00967333 174.34190147 -12.01921993 155.14713854 C-12.02024247 152.97557383 -12.02123708 150.80400911 -12.02220345 148.63244438 C-12.02267984 147.56403161 -12.02315623 146.49561884 -12.02364705 145.39482992 C-12.02581032 137.8717684 -12.01601173 130.3487772 -12.00143242 122.82573128 C-11.98390722 113.65475518 -11.98402923 104.48398406 -12.00678407 95.313016 C-12.01792446 90.63524853 -12.02109331 85.95784218 -12.00248337 81.28009033 C-11.98565405 76.99472385 -11.99206256 72.71003277 -12.01670016 68.42470985 C-12.02157582 66.8777078 -12.01808852 65.33065102 -12.00521272 63.78369487 C-11.92028379 52.78275184 -13.45386828 44.72067796 -20.90234375 36.3125 C-27.91574465 29.95989062 -34.82462276 28.45067366 -44.20703125 28.734375 C-51.72911904 29.72367453 -57.86593433 33.30705414 -62.65234375 39.1875 Z " fill="#000000" transform="translate(296.65234375,11.8125)"/>
<path d="M0 0 C12.75458771 13.2002195 19.15549606 29.32640674 19.09555054 47.5365448 C19.10008165 48.55932834 19.10461276 49.58211189 19.10928118 50.63588887 C19.12188496 54.04400839 19.12030739 57.45196727 19.11865234 60.86010742 C19.12464013 63.31159672 19.13144625 65.76308414 19.13900757 68.21456909 C19.15481938 74.17175227 19.1611149 80.12887293 19.16223232 86.08607128 C19.16318522 90.93271016 19.16730752 95.77933607 19.17363358 100.62597084 C19.19123325 114.39160444 19.20047454 128.15720695 19.19897263 141.92285188 C19.19889272 142.66382102 19.1988128 143.40479015 19.19873047 144.16821289 C19.19864871 144.91009534 19.19856695 145.65197779 19.19848271 146.41634152 C19.19767036 158.43087132 19.21679841 170.44527558 19.2450072 182.45976909 C19.27379732 194.82020617 19.28754411 207.18058216 19.28581965 219.54105359 C19.28515782 226.4708301 19.29055876 233.40047503 19.31217575 240.33022118 C19.33238949 246.85151428 19.33165149 253.37257815 19.31714249 259.89390182 C19.31505885 262.27945551 19.31972851 264.66502673 19.3318634 267.05055046 C19.44254882 290.32794712 15.41334214 309.26694277 -1.5546875 326.4296875 C-18.31450825 342.1650051 -37.01037451 345.88938689 -59.28662109 345.19873047 C-76.3952991 344.13613361 -91.47808539 334.33340899 -102.921875 322.14453125 C-113.91358575 309.4111762 -119.32228196 294.70211207 -119.31904602 277.98353577 C-119.32272271 276.96416992 -119.3263994 275.94480408 -119.3301875 274.89454836 C-119.34121262 271.47404602 -119.34506624 268.05357408 -119.34887695 264.63305664 C-119.35514259 262.18215844 -119.36178948 259.7312612 -119.36878967 257.28036499 C-119.38800765 249.92154631 -119.3986175 242.56273569 -119.40751746 235.20389929 C-119.41190606 231.7334655 -119.41727146 228.26303323 -119.42250633 224.79260063 C-119.43951726 213.24681573 -119.45400896 201.70103175 -119.46125507 190.15523624 C-119.46316479 187.16102662 -119.46508515 184.16681701 -119.46704102 181.17260742 C-119.46752476 180.42846297 -119.4680085 179.68431851 -119.4685069 178.91762423 C-119.47679797 166.87698027 -119.50211986 154.83643595 -119.53462169 142.79583544 C-119.5677612 130.41745173 -119.58571013 118.03911853 -119.58889931 105.66069025 C-119.59105828 98.71743141 -119.59971622 91.77431779 -119.62536049 84.83110237 C-119.64945177 78.2934591 -119.65285009 71.75602908 -119.64259911 65.2183342 C-119.64210507 62.82632898 -119.64838628 60.43431068 -119.66215515 58.04234505 C-119.78901978 34.68522621 -115.72104915 15.96192633 -98.859375 -1.35546875 C-70.72246639 -28.04945897 -27.45731422 -26.95751204 0 0 Z M-69.796875 28.26953125 C-74.34577757 33.53668159 -78.28590117 38.96817845 -78.30888939 46.12452793 C-78.31396393 46.96383242 -78.31903847 47.80313691 -78.32426679 48.66787487 C-78.32476455 49.59003369 -78.32526231 50.51219251 -78.32577515 51.46229553 C-78.3301574 52.44193927 -78.33453965 53.421583 -78.3390547 54.43091291 C-78.35245854 57.72876482 -78.35862518 61.02658999 -78.36474609 64.32446289 C-78.3726459 66.6830355 -78.38091477 69.04160689 -78.38952637 71.400177 C-78.41349774 78.48987143 -78.42867784 85.57956669 -78.44158643 92.66928902 C-78.44653682 95.34026717 -78.45198471 98.01124428 -78.45740175 100.68222152 C-78.48111117 112.45990685 -78.50129585 124.23759421 -78.51306725 136.01529789 C-78.51599685 138.89781257 -78.51895853 141.78032721 -78.52197266 144.6628418 C-78.52271871 145.37926035 -78.52346476 146.0956789 -78.52423342 146.8338071 C-78.53687841 158.43111757 -78.57008999 170.02827443 -78.61177449 181.62551314 C-78.65424107 193.53824815 -78.67776783 205.45090463 -78.68298781 217.36371511 C-78.68639692 224.0498286 -78.69866247 230.73566544 -78.73109055 237.42170906 C-78.7611744 243.71478866 -78.76748145 250.00745052 -78.75570679 256.3005867 C-78.75548607 258.6071993 -78.76378907 260.91383129 -78.78136063 263.22037697 C-78.80409204 266.37671201 -78.79573768 269.5315374 -78.77987671 272.68788147 C-78.7937588 273.59442524 -78.80764088 274.500969 -78.82194364 275.43498379 C-78.7178652 283.87746154 -75.53810108 290.63165905 -69.921875 296.89453125 C-62.9084741 303.24714063 -55.99959599 304.75635759 -46.6171875 304.47265625 C-39.09509971 303.48335672 -32.95828442 299.89997711 -28.171875 294.01953125 C-21.73127928 285.6203918 -20.86354441 276.59089364 -20.91790771 266.26647949 C-20.91322774 264.87379703 -20.91322774 264.87379703 -20.90845323 263.45297956 C-20.90053422 260.3702794 -20.90677294 257.28777944 -20.91308594 254.20507812 C-20.91037337 251.98340236 -20.90681094 249.76172749 -20.90246582 247.54005432 C-20.89337125 241.5256815 -20.896874 235.51137753 -20.90322399 229.49700356 C-20.90829915 223.19294682 -20.90358832 216.88889584 -20.90045166 210.58483887 C-20.89658381 199.32237913 -20.90278626 188.05994767 -20.91297033 176.79749459 C-20.9219049 166.60147182 -20.92035256 156.4054946 -20.91113281 146.20947266 C-20.90041172 134.34770758 -20.89645537 122.48596453 -20.90235734 110.62419367 C-20.90547008 104.35300256 -20.9059055 98.08184277 -20.89928436 91.81065369 C-20.89349317 85.91400477 -20.8975403 80.01744161 -20.90907288 74.12080193 C-20.91170997 71.9609434 -20.91097067 69.80107761 -20.90654755 67.641222 C-20.90105307 64.68491265 -20.90797339 61.72887521 -20.91790771 58.77258301 C-20.91121555 57.50163953 -20.91121555 57.50163953 -20.90438819 56.20502043 C-20.97190395 45.79091809 -22.60807636 35.68229073 -30.1484375 28.0078125 C-42.5191472 17.5823204 -57.56631752 17.78619627 -69.796875 28.26953125 Z " fill="#000000" transform="translate(493.171875,166.98046875)"/>
<path d="M0 0 C11.50838254 10.83350825 21.7209702 26.66426542 22.50649452 42.89109612 C22.55781003 45.49864279 22.57573159 48.10460122 22.58325195 50.71264648 C22.58982315 51.70525986 22.59639435 52.69787323 22.60316467 53.7205658 C22.62285687 57.00251346 22.63455419 60.28441535 22.64453125 63.56640625 C22.64860678 64.69173326 22.6526823 65.81706028 22.65688133 66.97648811 C22.67772945 72.93834371 22.69203396 78.90017641 22.70141602 84.86206055 C22.71244905 90.99146719 22.74681701 97.12050768 22.78658772 103.24978542 C22.81285946 107.98646168 22.82111744 112.7230523 22.82469749 117.459795 C22.82953991 119.71740236 22.84108609 121.97500651 22.85973549 124.23254204 C23.0341851 146.75856569 19.2490787 164.74058521 3.40625 181.8203125 C-10.18268402 195.57612817 -26.86508325 202.0119554 -46.03125 202.1328125 C-66.10006177 202.15982705 -82.4782521 195.61698151 -96.96875 181.5078125 C-109.46589735 168.33514367 -115.73336123 152.90980585 -115.75488281 134.89624023 C-115.75984772 133.90041428 -115.76481262 132.90458832 -115.76992798 131.87858582 C-115.78452045 128.58701888 -115.79134807 125.29550021 -115.796875 122.00390625 C-115.80263045 119.70809427 -115.80838813 117.4122823 -115.81414795 115.11647034 C-115.82465076 110.30054501 -115.83049762 105.48463634 -115.83398438 100.66870117 C-115.83945645 94.52122885 -115.86346017 88.37397943 -115.89195633 82.22657681 C-115.91065679 77.48140335 -115.91579233 72.73628269 -115.91732025 67.99107552 C-115.92033243 65.72624562 -115.92831204 63.46141632 -115.94150543 61.19662285 C-116.01969299 46.73854122 -115.79927203 33.96299805 -109.09375 20.8203125 C-108.75263184 20.14806641 -108.41151367 19.47582031 -108.06005859 18.78320312 C-99.52394935 2.81070551 -84.60349772 -8.4975786 -67.6015625 -14.1796875 C-43.91421528 -21.00374321 -18.949556 -15.92447627 0 0 Z M-69.12890625 34.5546875 C-75.06819299 42.38138606 -75.745151 51.22295323 -75.73901367 60.80004883 C-75.74237228 61.56529373 -75.7457309 62.33053864 -75.74919128 63.11897278 C-75.75863214 65.63011329 -75.76064094 68.14118663 -75.76171875 70.65234375 C-75.76493617 72.41200283 -75.76830061 74.17166165 -75.77180481 75.93132019 C-75.77777897 79.61380635 -75.77964648 83.2962691 -75.77905273 86.97875977 C-75.77895123 91.67575884 -75.79259928 96.37260637 -75.80982494 101.06956959 C-75.82099459 104.702903 -75.82297042 108.33620036 -75.82244301 111.96954918 C-75.82361581 113.70013641 -75.82799784 115.43072479 -75.83577538 117.16129494 C-76.02598438 136.20017793 -76.02598438 136.20017793 -67.59375 152.8203125 C-60.0182626 159.27548134 -53.04524759 161.36055723 -43.171875 161.1953125 C-35.49315691 160.39055602 -29.29455015 156.55834726 -24.17583275 150.84952068 C-19.3069575 144.6046125 -17.99806926 138.10577848 -18.04443359 130.36010742 C-18.03421173 129.46123306 -18.02398987 128.5623587 -18.01345825 127.63624573 C-17.98585946 124.69081321 -17.98756497 121.746327 -17.9921875 118.80078125 C-17.98440218 116.73488524 -17.97573051 114.66899241 -17.96621704 112.60310364 C-17.95133365 108.28176479 -17.95184443 103.96075284 -17.96240234 99.6394043 C-17.97397869 94.1283509 -17.9401445 88.61864472 -17.893713 83.10781384 C-17.86410538 78.84296474 -17.86251286 74.57843504 -17.86873245 70.31350136 C-17.86771241 68.28310799 -17.85735775 66.25269522 -17.83710861 64.22240257 C-17.66417386 46.43264468 -17.66417386 46.43264468 -26.77523804 31.58195496 C-32.5489131 26.49036931 -39.05860568 24.38720554 -46.59375 23.4453125 C-55.65547072 24.57802759 -63.00376048 27.63467549 -69.12890625 34.5546875 Z " fill="#000000" transform="translate(115.59375,310.1796875)"/>
</svg>
