<?xml version="1.0" encoding="UTF-8"?>
<svg version="1.1" xmlns="http://www.w3.org/2000/svg" width="512" height="512">
<path d="M0 0 C13.8636795 10.69894851 23.49850765 25.48955354 26 43 C27.60796911 62.52533923 23.77428137 79.14373802 11.83203125 94.8515625 C4.13133749 103.87432227 -5.00104907 109.72263019 -16 114 C-16.78117188 114.32097656 -17.56234375 114.64195312 -18.3671875 114.97265625 C-33.74626994 120.25460949 -52.66291548 118.01399624 -67.125 111.3125 C-81.21127765 103.84640506 -93.86601474 91.40195579 -99 76 C-99.86728729 75.99635437 -100.73457458 75.99270874 -101.62814331 75.98895264 C-109.83686201 75.95094713 -118.04518846 75.89395289 -126.25362968 75.81609726 C-130.47281227 75.77673621 -134.6917897 75.74449244 -138.91113281 75.72900391 C-142.98979591 75.71376174 -147.06789458 75.67918432 -151.14630508 75.63169098 C-152.6954162 75.61695455 -154.24460794 75.60896347 -155.79378891 75.60811615 C-174.94584342 75.58712297 -174.94584342 75.58712297 -181.92770386 69.25042725 C-187.35948847 63.41917384 -188.46641018 57.8379927 -188.3125 50.0078125 C-187.69168548 44.03247273 -185.39241519 40.42406099 -181.25 36.1875 C-172.47995856 30.28458749 -163.89609122 30.5293872 -153.6875 30.48828125 C-152.10708234 30.47141475 -150.52667793 30.45326189 -148.94628906 30.43388367 C-144.81016177 30.38659111 -140.67408824 30.35664818 -136.53778076 30.33044434 C-132.30763131 30.30053347 -128.07766671 30.25403958 -123.84765625 30.20898438 C-115.56519544 30.12318762 -107.28271741 30.05573802 -99 30 C-98.40687012 28.78219849 -98.40687012 28.78219849 -97.80175781 27.53979492 C-97.27420898 26.46834229 -96.74666016 25.39688965 -96.203125 24.29296875 C-95.68395508 23.23360107 -95.16478516 22.1742334 -94.62988281 21.08276367 C-86.78324572 6.24161829 -72.66171717 -4.50926645 -56.80273438 -9.50854492 C-37.28740629 -14.78982438 -16.73114811 -11.00678046 0 0 Z M-54.4375 39.4375 C-58.93510211 45.34293878 -59.88675313 50.64780632 -59 58 C-57.16864775 64.21782471 -53.34040482 68.45527715 -48 72 C-42.40347386 74.56507448 -36.95901511 74.77029694 -31.0625 73.0625 C-25.76998897 70.92275433 -22.2892338 66.52782309 -19 62 C-17.21934051 56.65802154 -16.9997739 50.28990031 -18.6484375 44.8671875 C-21.56331499 39.31148084 -26.3722483 35.2043862 -32 32.625 C-40.77196937 30.79750638 -48.37586379 32.66620882 -54.4375 39.4375 Z " fill="#000000" transform="translate(209,203)"/>
<path d="M0 0 C10.06842707 7.85726698 17.02793281 17.10391964 21.953125 28.89453125 C21.953125 29.55453125 21.953125 30.21453125 21.953125 30.89453125 C22.86687897 30.88786942 23.78063293 30.88120758 24.72207642 30.87434387 C33.34383979 30.81417054 41.96553237 30.76852518 50.58745766 30.73909473 C55.0198222 30.72345546 59.45201286 30.70224905 63.88427734 30.66821289 C68.16366657 30.63555727 72.4428888 30.61766516 76.72239304 30.60989952 C78.35303754 30.60436713 79.98367317 30.59356365 81.61424637 30.57734108 C83.90269799 30.55548391 86.19046428 30.55256772 88.47900391 30.55395508 C90.43092148 30.54396233 90.43092148 30.54396233 92.42227173 30.5337677 C98.79119997 31.18451045 102.88566887 34.07780688 106.953125 38.89453125 C111.13703507 44.87738637 111.97068007 50.70870421 110.953125 57.89453125 C109.1558466 64.07334041 105.29517331 68.40720657 99.953125 71.89453125 C95.78460222 73.93093621 92.29966191 74.16555159 87.68432617 74.21337891 C86.97158539 74.22342453 86.2588446 74.23347015 85.52450562 74.24382019 C83.18170944 74.27457366 80.83902714 74.29166521 78.49609375 74.30859375 C76.86655198 74.32731173 75.23701983 74.34688562 73.60749817 74.36727905 C69.32831506 74.41853976 65.04910055 74.45819782 60.76977539 74.49542236 C56.39917267 74.53550009 52.0286999 74.58657522 47.65820312 74.63671875 C39.08993262 74.73340624 30.52159765 74.81783387 21.953125 74.89453125 C21.27237915 76.31584351 21.27237915 76.31584351 20.57788086 77.76586914 C19.96245313 79.02899201 19.34662783 80.29192123 18.73046875 81.5546875 C18.43378296 82.17686157 18.13709717 82.79903564 17.8314209 83.44006348 C14.84086174 89.53105537 10.80598969 94.16937353 5.953125 98.89453125 C5.36273438 99.51714844 4.77234375 100.13976562 4.1640625 100.78125 C-6.99957396 111.72358089 -23.26084215 116.78895464 -38.546875 117.26953125 C-57.30363539 116.74534475 -74.45137368 109.49888876 -87.42578125 95.87109375 C-90.74210362 91.8275778 -93.41814588 87.40466999 -96.046875 82.89453125 C-96.45035156 82.21390625 -96.85382813 81.53328125 -97.26953125 80.83203125 C-104.55074994 67.54311501 -105.145686 50.08545794 -101.984375 35.45703125 C-96.44672065 17.51707268 -84.94842978 3.24626714 -68.421875 -5.79296875 C-45.63921473 -16.37814322 -20.70872287 -14.3102585 0 0 Z M-55.421875 39.45703125 C-59.50360346 45.57962394 -59.76957161 50.59247974 -59.046875 57.89453125 C-57.45199958 64.3382561 -53.66681178 67.36246245 -48.16796875 70.765625 C-43.0220583 73.50442448 -37.47350421 73.92500308 -31.890625 72.24609375 C-25.82511262 69.51661318 -21.96774331 65.2123947 -18.671875 59.51953125 C-16.93350977 52.2183973 -17.88029862 46.72799596 -21.48046875 40.1328125 C-24.45442129 35.88324939 -28.11484958 33.53853972 -33.046875 31.89453125 C-42.73992986 30.88932556 -48.766465 32.27619415 -55.421875 39.45703125 Z " fill="#000000" transform="translate(380.046875,353.10546875)"/>
<path d="M0 0 C1.08752495 -0.00523668 2.17504989 -0.01047336 3.29553014 -0.01586872 C6.94651288 -0.03089292 10.59735576 -0.03157442 14.24836731 -0.03224182 C16.86339048 -0.03986173 19.4784114 -0.04828893 22.09342957 -0.0574646 C29.20308171 -0.08030042 36.31270399 -0.08823383 43.42238784 -0.09329104 C47.86401739 -0.09655002 52.3056383 -0.10307375 56.74726295 -0.11029243 C69.05138336 -0.1298573 81.35549572 -0.14626191 93.65963268 -0.14916897 C94.44679366 -0.14935654 95.23395464 -0.14954411 96.04496898 -0.14973736 C97.64065635 -0.15010361 99.23634372 -0.1504673 100.83203109 -0.15082847 C101.62410466 -0.15101128 102.41617823 -0.1511941 103.23225403 -0.15138245 C104.02529756 -0.151563 104.81834109 -0.15174354 105.63541625 -0.15192956 C118.48063937 -0.15546991 131.32569471 -0.18248403 144.17085966 -0.21988034 C157.36736003 -0.25799114 170.56377722 -0.27732665 183.76033384 -0.27762848 C191.16626662 -0.27821246 198.5719993 -0.28666602 205.97788048 -0.31562614 C212.94566701 -0.34274828 219.9130516 -0.34402124 226.88087082 -0.3279705 C229.43581187 -0.32615458 231.99077561 -0.33285953 234.54566765 -0.34878922 C238.03905119 -0.36923929 241.5310477 -0.35870202 245.02441406 -0.34057617 C246.03075824 -0.35377614 247.03710243 -0.36697611 248.07394189 -0.38057607 C255.06258793 -0.29799716 260.51506194 1.30480636 266.32966614 5.27415466 C272.04472386 11.25667685 272.69647314 17.0183547 272.59919739 24.97727966 C272.13990859 30.59524702 270.54715181 34.23960041 266.38825989 38.05540466 C261.92475144 41.54072249 258.5283587 43.39676066 252.77620983 43.40558243 C251.83690347 43.40942357 250.89759711 43.41326472 249.92982692 43.41722226 C248.37907614 43.41592254 248.37907614 43.41592254 246.79699707 43.41459656 C245.15178887 43.41905324 245.15178887 43.41905324 243.47334415 43.42359996 C239.77920362 43.43230723 236.08509542 43.43379692 232.39094543 43.43528748 C229.75002386 43.43991419 227.10910526 43.44491789 224.46818542 43.45033264 C217.28017461 43.46391869 210.09216938 43.46994107 202.90414786 43.4743433 C198.41666594 43.4771052 193.92918617 43.48134246 189.4417057 43.48584747 C177.01927545 43.49804038 164.59684693 43.50833973 152.17441082 43.51172256 C151.37923813 43.51194213 150.58406544 43.5121617 149.7647966 43.51238792 C148.96771265 43.51260619 148.1706287 43.51282447 147.34939069 43.51304936 C145.73417326 43.51349283 144.11895583 43.51393939 142.5037384 43.51438904 C141.7025334 43.51461047 140.90132839 43.5148319 140.07584444 43.51506004 C127.09204425 43.51900846 114.10830016 43.53646372 101.12452164 43.55974856 C87.79702919 43.58345706 74.46956492 43.59592418 61.14205104 43.59709048 C53.65802093 43.59800751 46.17406393 43.60376689 38.69005394 43.6219101 C32.31749607 43.63730432 25.9450339 43.64243558 19.57246097 43.63417199 C16.32106106 43.63026306 13.0698944 43.63283618 9.81851006 43.64522934 C6.29326833 43.65788007 2.76852395 43.65210907 -0.75671387 43.64164734 C-1.78385555 43.64970374 -2.81099723 43.65776015 -3.86926442 43.66606069 C-10.67838505 43.61868486 -14.946283 42.54419704 -20.29533386 38.08665466 C-25.37787145 32.06786016 -27.39045746 26.90800508 -27.04924011 18.94993591 C-26.07984177 12.10418476 -22.76883237 7.83624855 -17.54924011 3.50071716 C-11.87317151 -0.20465819 -6.57892032 -0.01561541 0 0 Z " fill="#000000" transform="translate(47.67033386230469,84.72584533691406)"/>
<path d="M0 0 C13.41817416 10.67155963 23.69853454 25.40820184 25.8125 42.8125 C27.28319142 61.01387758 24.13561232 77.89871753 12.60546875 92.6328125 C10.42246026 95.1244917 8.1671392 97.48340842 5.8125 99.8125 C5.29558594 100.36292969 4.77867187 100.91335937 4.24609375 101.48046875 C-7.51496273 112.93444804 -25.10090627 117.35567109 -40.9765625 117.23046875 C-57.805493 116.69621699 -72.73698089 109.98657918 -84.875 98.34765625 C-97.45652812 84.554731 -103.80894792 68.11964613 -103.42578125 49.4453125 C-102.3196324 32.58107596 -95.19229533 16.77825534 -83.1875 4.8125 C-59.7787689 -15.6656724 -25.48627122 -18.26892008 0 0 Z M-54.5625 39.25 C-58.32050918 44.08026723 -59.72614314 48.21345371 -59.5625 54.33984375 C-58.61356501 60.59688384 -55.67716009 66.10687463 -50.5625 69.875 C-44.5367755 73.33421221 -39.01915784 73.58311793 -32.1875 72.8125 C-26.23999295 70.50436924 -22.36546723 66.4345542 -19.109375 61.01953125 C-16.99371465 55.95449695 -17.46959103 49.71304496 -18.76953125 44.4609375 C-21.21941975 38.66622406 -25.76101529 35.70062906 -31.1875 32.8125 C-40.24011526 29.79496158 -48.24665491 32.24598777 -54.5625 39.25 Z " fill="#000000" transform="translate(465.1875,54.1875)"/>
<path d="M0 0 C0.72665206 -0.00538554 1.45330412 -0.01077108 2.20197594 -0.01631981 C4.61384179 -0.03051896 7.02515253 -0.02351592 9.43704224 -0.01637268 C11.1756738 -0.02208051 12.91430163 -0.02904637 14.65292358 -0.03717041 C19.35963706 -0.0550723 24.0661638 -0.0539389 28.77290106 -0.04822803 C32.70913341 -0.04513155 36.64533012 -0.0512338 40.58155739 -0.05726677 C49.87163213 -0.07130095 59.16161489 -0.06976022 68.45169067 -0.05836487 C78.01978355 -0.04688748 87.587596 -0.0609555 97.15565193 -0.08776134 C105.38522079 -0.1099498 113.61470184 -0.11654855 121.84429848 -0.11068493 C126.75294532 -0.10732135 131.66141248 -0.10969044 136.57003403 -0.12693596 C141.18799936 -0.14245297 145.8055508 -0.13839699 150.42350006 -0.11963081 C152.11249083 -0.11595792 153.80151259 -0.11901528 155.4904747 -0.1295166 C175.25548501 -0.24296866 175.25548501 -0.24296866 182.27210808 6.13767338 C187.7106448 11.96255987 188.81405021 17.55206478 188.66018677 25.37986755 C188.03937225 31.35520732 185.74010196 34.96361906 181.59768677 39.20018005 C175.52419134 43.28810967 170.0522403 44.76152677 162.69537354 44.77536011 C161.60539544 44.78343841 161.60539544 44.78343841 160.49339759 44.79167992 C158.08153174 44.80587907 155.67022101 44.79887602 153.2583313 44.79173279 C151.51969973 44.79744062 149.78107191 44.80440648 148.04244995 44.81253052 C143.33573647 44.83043241 138.62920974 44.82929901 133.92247248 44.82358813 C129.98624013 44.82049166 126.05004341 44.82659391 122.11381614 44.83262688 C112.82374141 44.84666106 103.53375865 44.84512032 94.24368286 44.83372498 C84.67558998 44.82224759 75.10777753 44.8363156 65.53972161 44.86312145 C57.31015274 44.88530991 49.0806717 44.89190866 40.85107505 44.88604504 C35.94242821 44.88268146 31.03396106 44.88505055 26.12533951 44.90229607 C21.50737418 44.91781308 16.88982274 44.9137571 12.27187347 44.89499092 C10.58288271 44.89131803 8.89386095 44.89437538 7.20489883 44.90487671 C-12.56011148 45.01832877 -12.56011148 45.01832877 -19.57673454 38.63768673 C-25.01527126 32.81280024 -26.11867668 27.22329533 -25.96481323 19.39549255 C-25.34399871 13.42015279 -23.04472843 9.81174105 -18.90231323 5.57518005 C-12.82881781 1.48725044 -7.35686677 0.01383334 0 0 Z " fill="#000000" transform="translate(302.6523132324219,233.61231994628906)"/>
<path d="M0 0 C0.74970351 -0.00297112 1.49940703 -0.00594224 2.27182883 -0.0090034 C4.79131244 -0.01769524 7.31074855 -0.01919906 9.83024597 -0.02069092 C11.63373924 -0.02531874 13.43723152 -0.03034335 15.24072266 -0.03573608 C20.14574975 -0.04886538 25.05076314 -0.05530606 29.95580506 -0.05974674 C33.01945509 -0.06267657 36.08310136 -0.0667812 39.1467495 -0.07125092 C48.72983432 -0.08492714 58.31291059 -0.09459323 67.8960045 -0.09845281 C78.96269743 -0.10293424 90.0292669 -0.12048558 101.09592229 -0.1494534 C109.64717609 -0.17106091 118.19839512 -0.18115659 126.74967593 -0.18249393 C131.85834063 -0.18354261 136.96688929 -0.18946385 142.07552528 -0.20731354 C146.881288 -0.22377814 151.68684725 -0.22595755 156.4926281 -0.21717453 C158.25586618 -0.2164033 160.01911514 -0.22075823 161.78232574 -0.23063278 C164.19098263 -0.24333025 166.59891646 -0.23748778 169.00756836 -0.22705078 C169.70397944 -0.23510719 170.40039052 -0.24316359 171.11790496 -0.25146413 C177.00790477 -0.19184548 180.8459305 1.60016761 185.31925964 5.32794189 C190.40179723 11.3467364 192.41438324 16.50659148 192.07316589 24.46466064 C191.10376755 31.3104118 187.79275815 35.57834801 182.57316589 39.91387939 C177.93172464 42.94384313 173.67372568 43.43233575 168.23739624 43.40786743 C167.12464505 43.4146641 167.12464505 43.4146641 165.98941404 43.42159808 C163.50839721 43.43423893 161.02759999 43.43262192 158.54655457 43.43096924 C156.76571369 43.43695471 154.9848754 43.4437603 153.20404053 43.45132446 C148.36922903 43.46899035 143.53448832 43.47368011 138.69964767 43.47495604 C135.67784308 43.47637793 132.65605648 43.48064827 129.63425636 43.48595047 C119.08873477 43.50445312 108.54326373 43.51262084 97.99772644 43.51104736 C88.17348559 43.5098461 78.34946448 43.53094497 68.52527922 43.56253469 C60.08604691 43.58870239 51.64688634 43.59941444 43.20761377 43.59813654 C38.16930785 43.59762703 33.1311972 43.60330435 28.09293175 43.62449265 C23.35273754 43.64388314 18.6129247 43.64399392 13.8727169 43.62945938 C12.13611798 43.62737115 10.39949514 43.63207304 8.66293716 43.6441803 C-8.95356733 43.75901591 -8.95356733 43.75901591 -16.32917786 37.39434814 C-16.77519348 36.83618408 -17.22120911 36.27802002 -17.68074036 35.70294189 C-18.14222473 35.14735596 -18.60370911 34.59177002 -19.07917786 34.01934814 C-22.78120048 28.3484154 -23.15293291 22.73265897 -22.30574036 16.14044189 C-20.04846298 9.01591018 -16.74157345 4.83508682 -10.30574036 1.14044189 C-6.79892645 -0.02849608 -3.64790415 -0.00449556 0 0 Z " fill="#000000" transform="translate(43.30574035644531,383.85955810546875)"/>
</svg>
