<?xml version="1.0" encoding="UTF-8"?>
<svg version="1.1" xmlns="http://www.w3.org/2000/svg" width="512" height="512">
<path d="M0 0 C8.70820329 7.14519245 14.93252402 16.53224719 19 27 C19.91295837 27.00879936 19.91295837 27.00879936 20.84436035 27.01777649 C27.20415721 27.08192739 33.56345817 27.1664024 39.92285156 27.26245117 C42.29322758 27.29561573 44.66368095 27.32367378 47.03417969 27.34643555 C50.45020376 27.38013688 53.8655243 27.43246209 57.28125 27.48828125 C58.33364868 27.49467117 59.38604736 27.5010611 60.47033691 27.50764465 C68.74001376 27.67126505 75.90059129 28.90059129 82 35 C86.24034841 41.13131459 87.74199672 46.56654192 87 54 C85.33419903 61.12228287 81.8082004 64.93683236 75.9375 69.25 C71.85460989 71.68236006 68.66475557 72.12208765 63.95605469 72.20532227 C62.95531921 72.22526749 61.95458374 72.24521271 60.92352295 72.26576233 C59.85047913 72.28247482 58.7774353 72.29918732 57.671875 72.31640625 C56.01566132 72.3475779 56.01566132 72.3475779 54.32598877 72.37937927 C50.80072217 72.44473646 47.27538141 72.50369564 43.75 72.5625 C41.35936735 72.60569836 38.96874218 72.64931307 36.578125 72.69335938 C30.71882827 72.80040372 24.85945786 72.90219585 19 73 C18.61110596 73.8053418 18.22221191 74.61068359 17.8215332 75.44042969 C17.03782349 77.03999512 17.03782349 77.03999512 16.23828125 78.671875 C15.46931519 80.2511377 15.46931519 80.2511377 14.68481445 81.86230469 C6.7166163 96.70178921 -7.26898936 107.48858078 -23.19702148 112.50830078 C-39.72918434 116.98365877 -57.55717012 114.88781379 -72.75 107.3125 C-78.52254047 103.94235505 -83.28422456 99.70768663 -88 95 C-88.63808594 94.37351562 -89.27617187 93.74703125 -89.93359375 93.1015625 C-94.55034564 88.22775316 -102 78.99122754 -102 72 C-103.13160049 72.00276538 -104.26320099 72.00553076 -105.42909241 72.00837994 C-132.9627 72.07497693 -160.49629714 72.12427652 -188.02996826 72.15543652 C-201.34504812 72.17090576 -214.66005189 72.19199643 -227.97509766 72.22631836 C-239.58040178 72.25621886 -251.18566737 72.27557459 -262.79100895 72.28226548 C-268.93600802 72.28617661 -275.08089685 72.29536969 -281.2258606 72.31719017 C-287.01075461 72.33756546 -292.79549305 72.34383162 -298.58041954 72.33932304 C-300.70241835 72.34014777 -302.8244224 72.3461071 -304.94639015 72.35761642 C-307.84710011 72.37257667 -310.74722529 72.36894055 -313.64794922 72.36076355 C-314.48454606 72.36950207 -315.3211429 72.3782406 -316.18309116 72.38724393 C-323.75600844 72.32967647 -330.48526109 70.51473891 -336 65 C-340.23531064 58.87596975 -341.75488863 53.42756487 -341 46 C-339.58432013 40.34768993 -337.25202797 35.24906607 -332.328125 31.84375 C-326.14630308 28.14522407 -321.19792662 27.85547103 -314.12896729 27.87974548 C-313.22308451 27.87889106 -312.31720174 27.87803663 -311.38386798 27.87715632 C-308.34215502 27.87550649 -305.30049696 27.8810148 -302.25878906 27.88647461 C-300.08088685 27.88675661 -297.90298455 27.88659849 -295.7250824 27.8860321 C-289.80607825 27.88574465 -283.88709428 27.89163305 -277.96809483 27.89860606 C-271.78478154 27.90484819 -265.60146781 27.90544408 -259.41815186 27.90663147 C-247.70622021 27.90974224 -235.99429787 27.91795223 -224.28237033 27.92798096 C-210.95000518 27.93923007 -197.61764 27.94465454 -184.28527117 27.94967639 C-156.85684228 27.96013503 -129.42842166 27.97772959 -102 28 C-101.69690918 27.06752441 -101.39381836 26.13504883 -101.08154297 25.17431641 C-96.01044137 10.29069044 -84.39167925 -1.38466067 -70.53515625 -8.375 C-46.58304167 -19.38503278 -20.67135976 -15.72989578 0 0 Z " fill="#000000" transform="translate(383,206)"/>
<path d="M0 0 C8.63474182 7.04508223 15.60202911 15.00235304 20.52441406 25.03222656 C21.05309082 26.10480713 21.58176758 27.1773877 22.12646484 28.2824707 C22.52333496 29.09578857 22.92020508 29.90910645 23.32910156 30.74707031 C24.87962093 30.74788746 24.87962093 30.74788746 26.46146393 30.74872112 C51.61679785 30.76311854 76.77195877 30.80614351 101.92719269 30.87916088 C114.09210718 30.91380933 126.25690836 30.93916623 138.421875 30.94262695 C149.02525546 30.94566703 159.62843414 30.96616357 170.23173666 31.00759488 C175.84580134 31.02892238 181.45957915 31.04152663 187.07368469 31.03322411 C192.3597352 31.0256826 197.64520451 31.04151142 202.93114853 31.07513046 C204.86928978 31.08336243 206.80748884 31.08311523 208.74562454 31.07366753 C211.39721941 31.06202345 214.04691645 31.0811965 216.69836426 31.10783386 C217.46103308 31.0971606 218.22370191 31.08648734 219.00948191 31.07549065 C225.50098848 31.19672484 230.16312152 33.76629776 234.86130571 38.18964165 C239.20241923 43.02258406 240.84863782 48.05895696 240.63769531 54.53613281 C239.64151953 61.67329092 236.82595075 67.1068937 231.20800781 71.59082031 C226.24227267 74.64665733 221.7902768 75.03086109 216.05912781 74.98757935 C214.81540326 74.99014262 214.81540326 74.99014262 213.54655296 74.99275768 C210.77044912 74.99604983 207.9945874 74.98505338 205.21850586 74.97412109 C203.22764593 74.97355692 201.23678559 74.97387366 199.2459259 74.9750061 C193.84139926 74.97558038 188.43696124 74.96381391 183.03245521 74.94985819 C177.38433769 74.93736333 171.73621819 74.93618131 166.08808899 74.93380737 C155.39261377 74.92758895 144.69717939 74.9111732 134.00172216 74.89110839 C121.82530186 74.86876069 109.64887963 74.8577588 97.47244394 74.84771752 C72.4246405 74.82680731 47.37687332 74.79162427 22.32910156 74.74707031 C22.11326416 75.90807251 22.11326416 75.90807251 21.89306641 77.0925293 C19.36027888 89.0141738 8.84629053 99.69822619 -0.67089844 106.68457031 C-16.03959942 116.60063955 -32.94280038 119.64312376 -50.92089844 116.74707031 C-68.3150337 112.90148872 -82.52733095 103.06362993 -92.26855469 88.10644531 C-97.67089844 79.0172653 -97.67089844 79.0172653 -97.67089844 74.74707031 C-99.03486755 74.76039398 -99.03486755 74.76039398 -100.4263916 74.77398682 C-109.0180757 74.85431175 -117.60963271 74.91512554 -126.20160675 74.954319 C-130.61829212 74.9751466 -135.03466583 75.00337523 -139.45117188 75.04882812 C-143.71761618 75.0924592 -147.9837617 75.1162437 -152.25041199 75.12657928 C-153.87384236 75.13393982 -155.49725737 75.14831312 -157.12055969 75.16999054 C-172.96025311 75.37299792 -172.96025311 75.37299792 -179.67089844 70.74707031 C-185.0392037 65.49806072 -187.29269833 60.15087131 -188.10839844 52.80957031 C-187.84317832 47.18469362 -185.8034056 42.06759435 -181.98730469 37.91503906 C-176.5742106 33.13056235 -172.77121122 31.50319595 -165.42382812 31.42822266 C-164.7014798 31.41817703 -163.97913147 31.40813141 -163.2348938 31.39778137 C-160.85419489 31.36696229 -158.47360837 31.349918 -156.09277344 31.33300781 C-154.43938226 31.31429511 -152.78600062 31.29472162 -151.13262939 31.27432251 C-146.78602727 31.22300597 -142.43939419 31.18337773 -138.09265137 31.1461792 C-133.65511418 31.10613654 -129.21770573 31.05504539 -124.78027344 31.00488281 C-116.0772364 30.90812917 -107.37413562 30.82372264 -98.67089844 30.74707031 C-98.19776215 29.77990585 -97.72462585 28.81274139 -97.2371521 27.81626892 C-96.60637458 26.53781739 -95.97539252 25.25946676 -95.34423828 23.98120117 C-94.87829506 23.02668186 -94.87829506 23.02668186 -94.40293884 22.05287933 C-86.96140269 7.0290839 -72.30597723 -3.91064163 -56.64746094 -9.29199219 C-37.72811971 -14.39115972 -15.9129335 -11.93237503 0 0 Z " fill="#000000" transform="translate(229.6708984375,352.2529296875)"/>
<path d="M0 0 C9.69312349 7.64425204 16.62429661 16.92107563 21.3125 28.375 C21.3125 29.035 21.3125 29.695 21.3125 30.375 C22.12456909 30.37131283 22.93663818 30.36762566 23.77331543 30.36382675 C43.54586287 30.27543406 63.31837618 30.2092701 83.09107971 30.16775131 C92.65307721 30.14713871 102.2149427 30.11904301 111.77685547 30.07324219 C120.11242195 30.03333455 128.44789281 30.00755772 136.78355217 29.99864602 C141.19599115 29.99343792 145.60815662 29.9812242 150.02050781 29.95207977 C154.17704303 29.92484854 158.33319309 29.91657049 162.48980904 29.92256927 C164.01194924 29.92147247 165.53410286 29.91356438 167.0561657 29.8981781 C176.73652341 29.80515409 183.85533811 30.01688615 191.125 37.125 C195.12171199 43.0629721 197.52035872 49.08667065 196.3125 56.375 C194.16242824 63.88745312 190.15388558 68.36075664 183.61087418 72.43443108 C180.56003076 73.68293471 178.05344349 73.62067546 174.75726318 73.61550903 C173.77208407 73.61807231 173.77208407 73.61807231 172.76700234 73.62068737 C170.56818974 73.6239793 168.36968289 73.61298369 166.17089844 73.60205078 C164.59397387 73.6014866 163.01704877 73.60180336 161.44012451 73.60293579 C157.15946019 73.60351004 152.87890776 73.59174398 148.59826946 73.57778788 C144.12462111 73.56529263 139.65097024 73.56411097 135.17730713 73.56173706 C126.7059162 73.55551875 118.23457684 73.53910317 109.76320863 73.51903808 C100.11880842 73.49669002 90.47440575 73.4856884 80.8299861 73.47564721 C60.99079527 73.45473725 41.15165088 73.41955443 21.3125 73.375 C21.11343048 73.99024536 20.91436096 74.60549072 20.70925903 75.23937988 C20.44442719 76.04790405 20.17959534 76.85642822 19.90673828 77.68945312 C19.64579376 78.49032349 19.38484924 79.29119385 19.11599731 80.11633301 C14.05107372 94.35406041 1.43821638 104.4871702 -11.73828125 110.84765625 C-28.70735643 118.24332688 -46.22099852 118.4421127 -63.6875 112.375 C-78.3981188 106.08904658 -90.21139253 95.19188398 -96.82519531 80.6628418 C-97.63068817 78.89894356 -97.63068817 78.89894356 -98.45245361 77.09941101 C-98.86001892 76.20035538 -99.26758423 75.30129974 -99.6875 74.375 C-100.28311234 74.37445523 -100.87872467 74.37391047 -101.49238586 74.37334919 C-116.0076442 74.3583598 -130.52264283 74.31582596 -145.03771973 74.24290943 C-152.05724538 74.208306 -159.07657561 74.18291005 -166.09619141 74.17944336 C-172.8720761 74.17607087 -179.64745379 74.1467041 -186.42318726 74.10156822 C-189.00667458 74.08859073 -191.59022068 74.08428639 -194.17373657 74.08884621 C-197.7960497 74.09374993 -201.41692607 74.06766572 -205.0390625 74.03442383 C-206.6369738 74.04736229 -206.6369738 74.04736229 -208.26716614 74.06056213 C-215.83009599 73.94441595 -220.70336983 72.1549371 -226.20791626 66.93250751 C-230.56961761 62.11864766 -232.20683626 57.05697228 -231.99609375 50.5859375 C-230.99991797 43.44877939 -228.18434919 38.01517662 -222.56640625 33.53125 C-218.67978834 31.13948513 -215.23295341 30.12610804 -210.68241882 30.0965271 C-209.69950363 30.08536362 -208.71658844 30.07420013 -207.70388794 30.06269836 C-206.63717865 30.06053818 -205.57046936 30.05837799 -204.47143555 30.05615234 C-202.77321907 30.04108391 -202.77321907 30.04108391 -201.04069519 30.02571106 C-197.30187483 29.99484219 -193.56312621 29.97783334 -189.82421875 29.9609375 C-187.23060996 29.94222887 -184.63700727 29.92265568 -182.04341125 29.9022522 C-175.91664151 29.85614124 -169.78987544 29.81874455 -163.66302377 29.78557932 C-156.68595811 29.7473248 -149.70898523 29.6979234 -142.73199785 29.64759517 C-128.3839019 29.54434496 -114.03574313 29.45506214 -99.6875 29.375 C-99.00675415 27.95368774 -99.00675415 27.95368774 -98.31225586 26.50366211 C-97.69682813 25.24053924 -97.08100283 23.97761002 -96.46484375 22.71484375 C-96.01981506 21.78158264 -96.01981506 21.78158264 -95.5657959 20.82946777 C-92.57523674 14.73847588 -88.54036469 10.10015772 -83.6875 5.375 C-83.09710938 4.75238281 -82.50671875 4.12976563 -81.8984375 3.48828125 C-60.30341996 -17.67864122 -23.49693256 -17.65513488 0 0 Z " fill="#000000" transform="translate(273.6875,54.625)"/>
</svg>
