<?xml version="1.0" encoding="UTF-8"?>
<svg id="Layer_1" xmlns="http://www.w3.org/2000/svg" version="1.1" viewBox="0 0 577.99 589">
  <!-- Generator: Adobe Illustrator 29.5.1, SVG Export Plug-In . SVG Version: 2.1.0 Build 141)  -->
  <defs>
    <style>
      .st0 {
        display: none;
      }
    </style>
  </defs>
  <path d="M117.24,32.79c1.52,0,3.03,0,4.6,0,4.2,0,8.42,0,12.62-.02,4.56,0,9.09,0,13.63-.02,10.96-.02,21.94-.03,32.91-.04,5.17,0,10.34,0,15.52,0,17.21-.02,34.42-.03,51.63-.04h16.75c17.95,0,35.9-.03,53.86-.08,18.45-.03,36.91-.06,55.36-.06,10.34,0,20.71,0,31.06-.04,8.82-.02,17.63-.03,26.47-.02,4.49,0,8.97,0,13.48-.02,34.51-.16,64.11,4.06,89.96,27.64,19.39,18.44,29.13,43.23,29.1,68.94v3.08c0,3.38,0,6.77,0,10.16,0,2.44,0,4.88.02,7.31,0,6.61.02,13.21.02,19.82,0,4.15,0,8.27,0,12.41,0,11.47.5,70.66.5,82.13v11.15c0,11.94-.51,49.21-.5,61.16.02,12.29.05,24.6.05,36.88,0,6.89-.48,41.44-.46,48.34.02,6.49.02,12.99,0,19.47,0,2.36,0,4.74,0,7.11.15,32.21-7.06,58.63-31.27,82.58-20.99,18.87-48.05,25.75-76.42,25.73h-4.51c-4.11,0-8.24,0-12.35,0-4.44,0-8.9,0-13.35.02-9.71,0-19.44.02-29.13.02-6.07,0-12.15,0-18.22,0-16.84,0-33.66.02-50.5.03h-16.38c-17.55,0-35.11.02-52.66.04-18.05.02-36.09.04-54.14.04-10.12,0-20.26,0-30.36.02-8.62.02-17.24.02-25.86,0-4.39,0-8.78,0-13.18,0-36.97.12-68.5-4.55-95.9-30.04-7.05-6.98-12.33-14.76-16.81-23.38-.36-.69-.72-1.37-1.1-2.08-8.07-16.61-8.51-33.08-8.44-50.95,0-2.57,0-5.15-.02-7.71-.02-6.94,0-13.87,0-20.8l.48-47.29c0-13.75,0-27.49.02-41.24.02-11.76.56-48.84.53-60.6-.02-13.71-.51-75.11-.49-88.82v-21.71c0-6.8,0-13.61.02-20.41v-7.46c-.1-28.72,7.65-53.29,29.06-74.58,20.88-18.5,45.94-26.71,74.31-26.7h.05ZM76.44,96.61c-9.07,10.56-11.87,21.79-11.87,35.09,0,1,0,1.99,0,3.01,0,3.34,0,6.66-.02,10,0,2.4,0,4.77-.02,7.16-.02,7.85-.03,15.69-.05,23.54,0,2.7,0,5.4,0,8.11-.02,12.71.43,73.12.41,85.82,0,14.65-.58,54.63-.64,69.27-.03,11.33-.05,22.66-.06,34.01,0,6.76-.42,28.32-.46,35.08-.02,6.37-.1,25.61-.09,31.98,0,2.33,0,4.66-.02,6.99-.11,18.51,1.39,33.5,15.26,47.79,12.75,10.74,24.12,13.71,41.01,13.66,1.5,0,2.98,0,4.52,0,4.13,0,8.26,0,12.38,0,4.45,0,8.91,0,13.37.02,8.71.02,17.46.02,26.17.02,7.09,0,14.2,0,21.29,0,20.13.02,40.27.03,60.4.03h6.59c17.6,0,35.19.02,52.79.06,18.08.03,36.16.04,54.24.04,10.15,0,20.29,0,30.43.03,8.64.02,17.28.02,25.92,0,4.41,0,8.8,0,13.21,0,4.78.02,9.57,0,14.36,0,1.37,0,2.76.03,4.18.03,15.35-.12,27.89-4.61,39.15-14.47,9.67-9.8,13.5-21.78,13.42-34.82,0-1.02,0-2.03,0-3.08,0-3.38,0-6.78,0-10.18,0-2.44,0-4.88.02-7.31,0-6.62.08-26.08.08-32.71l.41-31.36c0-13.78,0-27.56,0-41.34,0-11.95.55-49.23.57-61.18.02-12.29-.33-50.23-.33-62.52,0-6.89-.1-35.84-.1-42.74,0-6.49,0-12.98,0-19.46v-7.12c0-3.24,0-6.51,0-9.75,0-.93,0-1.87.02-2.81-.13-13.01-5.41-24.6-14.93-34.03-14.21-12.44-30.42-13.54-49.09-13.52h-16.13c-4.25,0-8.51,0-12.76,0-8.33,0-16.65,0-24.98,0h-20.31c-19.21,0-38.42,0-57.64,0h-6.26c-16.79,0-33.57,0-50.36-.02-17.27,0-34.51-.02-51.77-.02-9.69,0-19.36,0-29.05,0-8.25,0-16.48,0-24.73,0h-26.29c-1.32,0-2.61,0-3.98-.02-18.46.08-35.41,3.47-48.33,16.75h.02v-.02l.04.04Z"/>
  <path class="st0" d="M124.54,205.9c1.17,0,2.35,0,3.55-.02h11.74c2.81,0,5.63,0,8.43-.02,6.83-.02,13.67-.02,20.51,0h69.14c13.79,0,27.56,0,41.35-.03,14.17-.02,28.33-.03,42.5-.03,7.95,0,15.89,0,23.85-.02,7.47-.02,14.95,0,22.42,0h8.22c3.75,0,7.49,0,11.23.02,1.08,0,2.17-.02,3.28-.03,7.71.08,14.78,1.38,20.56,6.79,6.19,6.8,7.2,12.07,7.05,21.22-.75,6.83-4.04,10.92-9.04,15.45-6.91,4.74-13.32,4.75-21.45,4.72h-15.3c-2.81,0-5.62,0-8.43.02-6.84.02-13.68.02-20.52.02h-16.69c-15.77.02-31.56.03-47.34.03h-5.15c-13.79,0-27.58.02-41.37.05-14.17.03-28.34.04-42.51.04-7.95,0-15.91,0-23.86.03-7.47.02-14.96.02-22.43,0h-8.22c-3.75.02-7.5,0-11.24,0-1.08,0-2.16.02-3.27.03-7.9-.08-15.8-1.36-21.86-6.76-5.86-6.31-7.08-12.26-6.91-20.7.67-6.43,3.17-10.31,7.67-14.87,7.93-5.29,14.78-6.06,24.09-6v.06Z"/>
  <path class="st0" d="M113.25,309.45c1.02,0,2.04,0,3.1-.02h7.03c4.02,0,8.05-.02,12.07-.03,2.88,0,5.76-.02,8.63-.02,8.65-.02,17.3-.04,25.94-.05h7.32c15.17-.03,30.33-.05,45.5-.06h13.19c14.15,0,28.29-.05,42.42-.1,14.53-.04,29.04-.08,43.57-.08,8.15,0,16.31-.02,24.46-.05,6.94-.03,13.88-.04,20.83-.03,3.54,0,7.08,0,10.63-.02,3.85-.02,7.68,0,11.53,0,1.12,0,2.23-.03,3.38-.04,7.18.08,11.92,1.5,17.48,6.08,5.17,5.53,6.83,9.53,6.86,17.08.02,1.28.03,2.57.05,3.89-.72,6.83-3.87,11.24-9.08,15.61-6.74,4.44-12.75,4.92-20.69,4.85-1.19,0-2.39,0-3.6.02-3.97.02-7.92,0-11.89,0-2.85,0-5.69.01-8.54.02-6.92.02-13.84.01-20.75,0-5.63,0-11.24-.01-16.87,0h-7.32c-15.25.01-30.51,0-45.77-.02-13.08-.02-26.16-.01-39.24,0-15.2.02-30.41.03-45.61.02h-7.29c-5.62,0-11.23,0-16.85.01-7.56.01-15.12,0-22.68-.02h-8.32c-3.79.01-7.57,0-11.36-.02-1.1,0-2.19.02-3.32.03-7.77-.09-13.61-1.68-19.57-6.76-.49-.6-.97-1.2-1.47-1.82-.5-.6-1-1.19-1.52-1.81-4.02-6.1-4.42-12.15-3.51-19.23,2.46-7.66,6.04-12.17,13.04-16.14,3.1-1.02,5.01-1.22,8.21-1.23l.03-.04h-.02v-.02Z"/>
  <path class="st0" d="M122.16,411.55c1.18,0,2.37-.01,3.59-.02,3.97-.02,7.93-.02,11.9-.02,2.85,0,5.68-.02,8.53-.03,7.72-.02,15.45-.03,23.17-.04,4.82,0,9.65,0,14.47-.02,13.36-.02,26.74-.04,40.1-.04h13.02c13.96,0,27.91-.03,41.87-.08,14.34-.04,28.67-.06,43.01-.06,8.05,0,16.09,0,24.14-.04,7.57-.03,15.14-.03,22.71-.01,2.77,0,5.55,0,8.32-.02,3.79-.02,7.59,0,11.39,0,1.1-.01,2.18-.03,3.31-.04,7.59.09,13.52,1.82,19.84,6.08,6.42,6.65,6.97,13.19,6.89,22.03-.61,6.28-3,9.98-7.74,14.07-4.6,3.42-8.19,4.92-13.87,4.93-1.02,0-2.04,0-3.1.01h-7.01c-4.01,0-8.03.01-12.04.01-2.87,0-5.74,0-8.6.02-7.81.01-15.62.02-23.42.02-4.88,0-9.75,0-14.62.01-13.49.01-26.99.02-40.49.03h-13.16c-14.1,0-28.21.02-42.32.04-14.48.02-28.95.04-43.44.04-8.13,0-16.26,0-24.39.02-6.92.02-13.85.02-20.77.01-3.53,0-7.06,0-10.59.01-3.84.01-7.66,0-11.49,0-1.12,0-2.23.02-3.38.02-7.4-.05-12.04-1.2-17.85-6-5.52-6.48-7.71-12.03-7.33-20.59,1.05-7.37,4.65-11.95,10.32-16.62,6.17-3.99,11.92-3.79,19.07-3.77l-.02.05h-.02Z"/>
  <path d="M137.14,396.88h6.97c1.3,0,2.58,0,3.87,0,3.56,0,7.1,0,10.66,0,3.83,0,7.66,0,11.5-.02,7.5,0,15.02-.02,22.52-.02,6.1,0,12.2,0,18.3,0,17.29-.02,34.59-.02,51.88-.02h5.66c15.13,0,30.26-.02,45.39-.04,15.54-.03,31.07-.04,46.6-.04,8.72,0,17.45,0,26.16-.02,7.43-.02,14.85-.02,22.28,0h11.36c3.47,0,6.94,0,10.41,0,1.26,0,2.51,0,3.77,0,8.37-.06,15.71.45,22.14,7.27,5.37,6.78,6.62,13.98,6.43,22.88-.34,6.92-2.96,12.7-7.48,17.32-4.89,4.18-9.4,5.98-15.58,5.99h-6.97c-1.3,0-2.58,0-3.87,0-3.56,0-7.1,0-10.66,0-3.83,0-7.66,0-11.5.02-7.5,0-15.02.02-22.52.02-6.1,0-12.2,0-18.3,0-17.29.02-34.59.02-51.88.02h-5.66c-15.13,0-30.26.02-45.39.04-15.54.03-31.07.04-46.6.04-8.72,0-17.45,0-26.16.02-7.43.02-14.85.02-22.28,0h-11.36c-3.47,0-6.94,0-10.41,0-1.26,0-2.51,0-3.77,0-8.37.06-15.71-.45-22.14-7.27-5.37-6.78-6.62-13.98-6.43-22.88.34-6.92,2.96-12.7,7.48-17.32,4.89-4.18,9.4-5.98,15.58-5.99h0Z"/>
  <path d="M137.11,267.47h21.5c3.83,0,7.66,0,11.5-.02,7.5,0,15.02-.02,22.52-.02h18.3c17.29-.02,34.59-.02,51.88-.02h5.66c15.13,0,30.26-.02,45.39-.04,15.54-.03,31.07-.04,46.6-.04,8.72,0,17.45,0,26.16-.02,7.43-.02,14.85-.02,22.28,0h25.54c8.37-.06,15.71.45,22.14,7.27,5.37,6.78,6.62,13.98,6.43,22.88-.34,6.92-2.96,12.7-7.48,17.32-4.89,4.18-9.4,5.98-15.58,5.99h-6.97c-1.3,0-2.58,0-3.87,0-3.56,0-7.1,0-10.66,0-3.83,0-7.66,0-11.5.02-7.5,0-15.02.02-22.52.02-6.1,0-12.2,0-18.3,0-17.29.02-34.59.02-51.88.02h-5.66c-15.13,0-30.26.02-45.39.04-15.54.03-31.07.04-46.6.04-8.72,0-17.45,0-26.16.02-7.43.02-14.85.02-22.28,0h-11.36c-3.47,0-6.94,0-10.41,0-1.26,0-2.51,0-3.77,0-8.37.06-15.71-.45-22.14-7.27-5.37-6.78-6.62-13.98-6.43-22.88.34-6.92,2.96-12.7,7.48-17.32,4.89-4.18,9.4-5.98,15.58-5.99h0v-.03Z"/>
  <path d="M137.11,138.06h6.97c1.3,0,2.58,0,3.87,0,3.56,0,7.1,0,10.66,0,3.83,0,7.66,0,11.5-.02,7.5,0,15.02-.02,22.52-.02,6.1,0,12.2,0,18.3,0,17.29-.02,34.59-.02,51.88-.02h5.66c15.13,0,30.26-.02,45.39-.04,15.54-.03,31.07-.04,46.6-.04,8.72,0,17.45,0,26.16-.02,7.43-.02,14.85-.02,22.28,0h11.36c3.47,0,6.94,0,10.41,0,1.26,0,2.51,0,3.77,0,8.37-.06,15.71.45,22.14,7.27,5.37,6.78,6.62,13.98,6.43,22.88-.34,6.92-2.96,12.7-7.48,17.32-4.89,4.18-9.4,5.98-15.58,5.99h-21.5c-3.83,0-7.66,0-11.5.02-7.5,0-15.02.02-22.52.02h-18.3c-17.29.02-34.59.02-51.88.02h-5.66c-15.13,0-30.26.02-45.39.04-15.54.03-31.07.04-46.6.04-8.72,0-17.45,0-26.16.02-7.43.02-14.85.02-22.28,0h-25.54c-8.37.06-15.71-.45-22.14-7.27-5.37-6.78-6.62-13.98-6.43-22.88.34-6.92,2.96-12.7,7.48-17.32,4.89-4.18,9.4-5.98,15.58-5.99h0v.03Z"/>
</svg>