<?xml version="1.0" encoding="UTF-8"?>
<svg id="Layer_1" xmlns="http://www.w3.org/2000/svg" version="1.1" viewBox="0 0 577.99 589">
  <!-- Generator: Adobe Illustrator 29.5.1, SVG Export Plug-In . SVG Version: 2.1.0 Build 141)  -->
  <defs>
    <style>
      .st0 {
        display: none;
      }
    </style>
  </defs>
  <path d="M108.58,7.24c1.59,0,3.18,0,4.83-.01,4.41,0,8.83-.01,13.24-.02,4.78,0,9.53-.01,14.3-.02,11.5-.02,23.01-.03,34.52-.04,5.42,0,10.85,0,16.28-.01,18.05-.02,36.1-.03,54.16-.04h17.57c18.83,0,37.66-.03,56.49-.09,19.35-.03,38.72-.06,58.07-.06,10.85,0,21.72-.01,32.58-.04,9.25-.02,18.49-.03,27.76-.02,4.71,0,9.41,0,14.14-.02,36.2-.17,67.25,4.42,94.36,30.07,20.34,20.06,30.55,47.04,30.52,75.01v3.35c0,3.68.01,7.37.01,11.05,0,2.65,0,5.31.02,7.95.01,7.19.02,14.37.02,21.57,0,4.51,0,9,.01,13.5.01,12.48.52,76.88.52,89.36v12.13c0,12.99-.54,53.54-.52,66.54.02,13.37.05,26.76.05,40.13,0,7.5-.5,45.09-.48,52.59.02,7.06.02,14.13,0,21.18,0,2.57,0,5.16.01,7.74.16,35.05-7.41,63.79-32.8,89.85-22.02,20.53-50.4,28.02-80.16,28h-4.73c-4.31,0-8.64,0-12.95.01-4.66,0-9.34,0-14,.02-10.19.01-20.39.02-30.56.02-6.37,0-12.74,0-19.11.01-17.66.01-35.31.02-52.97.03h-17.18c-18.41,0-36.83.02-55.24.04-18.93.02-37.86.04-56.79.04-10.62,0-21.25,0-31.85.02-9.04.02-18.08.02-27.13.01-4.61,0-9.21,0-13.82.01-38.78.13-71.85-4.95-100.59-32.68-7.39-7.59-12.93-16.06-17.63-25.44-.38-.75-.76-1.49-1.15-2.26C-.08,498.65-.55,480.73-.47,461.28c0-2.8-.01-5.6-.02-8.39-.02-7.55-.01-15.09,0-22.63L.01,378.81c-.01-14.96,0-29.91.02-44.87.02-12.8.59-53.14.56-65.93-.02-14.92-.53-81.72-.51-96.64v-23.62c-.01-7.4,0-14.81.02-22.21v-8.12C0,86.17,8.12,59.44,30.58,36.28,52.48,16.15,78.77,7.22,108.53,7.23h.05ZM65.79,76.67c-9.51,11.49-12.45,23.71-12.45,38.18,0,1.09,0,2.16-.01,3.27-.01,3.63-.01,7.25-.02,10.88,0,2.61-.01,5.19-.02,7.79-.02,8.54-.03,17.07-.05,25.61,0,2.94,0,5.88-.01,8.82-.02,13.83.45,79.56.43,93.37,0,15.94-.61,59.44-.67,75.37-.03,12.33-.05,24.66-.06,37,0,7.36-.44,30.81-.48,38.17-.02,6.93-.11,27.86-.09,34.79,0,2.53,0,5.07-.02,7.6-.12,20.14,1.46,36.45,16.01,52,13.37,11.68,25.3,14.92,43.02,14.86,1.57,0,3.13,0,4.74.01,4.33.01,8.66.01,12.99,0,4.67,0,9.35.01,14.02.02,9.14.02,18.31.02,27.45.02,7.44,0,14.89,0,22.33.01,21.12.02,42.24.03,63.35.03h6.91c18.46,0,36.91.02,55.37.06,18.96.03,37.93.04,56.89.04,10.65,0,21.28,0,31.92.03,9.06.02,18.13.02,27.19,0,4.63,0,9.23,0,13.86.01,5.01.02,10.04,0,15.06,0,1.44.01,2.9.03,4.38.03,16.1-.13,29.25-5.02,41.07-15.74,10.14-10.66,14.16-23.7,14.08-37.89,0-1.11,0-2.21.01-3.35.01-3.68,0-7.38,0-11.08,0-2.65,0-5.31.02-7.95.01-7.2.08-28.38.08-35.59l.43-34.12c.01-14.99.01-29.99,0-44.98,0-13,.58-53.56.6-66.56.02-13.37-.35-54.65-.35-68.02,0-7.5-.11-38.99-.1-46.5.01-7.06.01-14.12,0-21.17v-7.75c.01-3.53,0-7.08-.01-10.61,0-1.01.01-2.03.02-3.06-.14-14.15-5.67-26.77-15.66-37.03-14.91-13.53-31.91-14.73-51.49-14.71h-16.92c-4.46,0-8.93,0-13.38-.01-8.74,0-17.46-.01-26.2-.01h-21.3c-20.15,0-40.3-.01-60.46-.01h-6.57c-17.61,0-35.21,0-52.82-.02-18.11-.01-36.2-.02-54.3-.02-10.16,0-20.31,0-30.47-.01-8.65,0-17.29-.01-25.94,0h-27.58c-1.38,0-2.74-.01-4.17-.02-19.36.09-37.14,3.78-50.69,18.22h.02v-.02Z"/>
  <path class="st0" d="M124.54,205.9c1.17,0,2.35,0,3.55-.02,3.91,0,7.82,0,11.74,0,2.81,0,5.63,0,8.43-.02,6.83-.02,13.67-.02,20.51,0h23.9c15.08,0,30.16,0,45.24,0,13.79,0,27.56,0,41.35-.03,14.17-.02,28.33-.03,42.5-.03,7.95,0,15.89,0,23.85-.02,7.47-.02,14.95,0,22.42,0h8.22c3.75,0,7.49,0,11.23.02,1.08,0,2.17-.02,3.28-.03,7.71.08,14.78,1.38,20.56,6.79,6.19,6.8,7.2,12.07,7.05,21.22-.75,6.83-4.04,10.92-9.04,15.45-6.91,4.74-13.32,4.75-21.45,4.72-1.17,0-2.35,0-3.54,0-3.92,0-7.83,0-11.76,0-2.81,0-5.62,0-8.43.02-6.84.02-13.68.02-20.52.02-5.56,0-11.12,0-16.69,0-15.77.02-31.56.03-47.34.03h-5.15c-13.79,0-27.58.02-41.37.05-14.17.03-28.34.04-42.51.04-7.95,0-15.91,0-23.86.03-7.47.02-14.96.02-22.43,0-2.74,0-5.49,0-8.22,0-3.75.02-7.5,0-11.24,0-1.08,0-2.16.02-3.27.03-7.9-.08-15.8-1.36-21.86-6.76-5.86-6.31-7.08-12.26-6.91-20.7.67-6.43,3.17-10.31,7.67-14.87,7.93-5.29,14.78-6.06,24.09-6v.04Z"/>
  <path class="st0" d="M113.25,309.45c1.02,0,2.04,0,3.1-.02h3.41c1.2,0,2.39,0,3.62,0,4.02,0,8.05-.02,12.07-.03,2.88,0,5.76-.02,8.63-.02,8.65-.02,17.3-.04,25.94-.05,2.44,0,4.89,0,7.32,0,15.17-.03,30.33-.05,45.5-.06h13.19c14.15,0,28.29-.05,42.42-.1,14.53-.04,29.04-.08,43.57-.08,8.15,0,16.31-.02,24.46-.05,6.94-.03,13.88-.04,20.83-.03,3.54,0,7.08,0,10.63-.02,3.85-.02,7.68,0,11.53,0,1.12,0,2.23-.03,3.38-.04,7.18.08,11.92,1.5,17.48,6.08,5.17,5.53,6.83,9.53,6.86,17.08.02,1.28.03,2.57.05,3.89-.72,6.83-3.87,11.24-9.08,15.61-6.74,4.44-12.75,4.92-20.69,4.85-1.19,0-2.39,0-3.6.02-3.97.02-7.92,0-11.89,0-2.85,0-5.69.01-8.54.02-6.92.02-13.84.01-20.75,0-5.63,0-11.24-.01-16.87,0h-7.32c-15.25.01-30.51,0-45.77-.02-13.08-.02-26.16-.01-39.24,0-15.2.02-30.41.03-45.61.02h-7.29c-5.62,0-11.23,0-16.85.01-7.56.01-15.12,0-22.68-.02h-8.32c-3.79.01-7.57,0-11.36-.02-1.1,0-2.19.02-3.32.03-7.77-.09-13.61-1.68-19.57-6.76-.49-.6-.97-1.2-1.47-1.82-.5-.6-1-1.19-1.52-1.81-4.02-6.1-4.42-12.15-3.51-19.23,2.46-7.66,6.04-12.17,13.04-16.14,3.1-1.02,5.01-1.22,8.21-1.23l.03-.04h-.02Z"/>
  <path class="st0" d="M122.16,411.55c1.18,0,2.37-.01,3.59-.02,3.97-.02,7.93-.02,11.9-.02,2.85,0,5.68-.02,8.53-.03,7.72-.02,15.45-.03,23.17-.04,4.82,0,9.65,0,14.47-.02,13.36-.02,26.74-.04,40.1-.04h13.02c13.96,0,27.91-.03,41.87-.08,14.34-.04,28.67-.06,43.01-.06,8.05,0,16.09,0,24.14-.04,7.57-.03,15.14-.03,22.71-.01,2.77,0,5.55,0,8.32-.02,3.79-.02,7.59,0,11.39,0,1.1-.01,2.18-.03,3.31-.04,7.59.09,13.52,1.82,19.84,6.08,6.42,6.65,6.97,13.19,6.89,22.03-.61,6.28-3,9.98-7.74,14.07-4.6,3.42-8.19,4.92-13.87,4.93-1.02,0-2.04,0-3.1.01h-7.01c-4.01,0-8.03.01-12.04.01-2.87,0-5.74,0-8.6.02-7.81.01-15.62.02-23.42.02-4.88,0-9.75,0-14.62.01-13.49.01-26.99.02-40.49.03h-13.16c-14.1,0-28.21.02-42.32.04-14.48.02-28.95.04-43.44.04-8.13,0-16.26,0-24.39.02-6.92.02-13.85.02-20.77.01-3.53,0-7.06,0-10.59.01-3.84.01-7.66,0-11.49,0-1.12,0-2.23.02-3.38.02-7.4-.05-12.04-1.2-17.85-6-5.52-6.48-7.71-12.03-7.33-20.59,1.05-7.37,4.65-11.95,10.32-16.62,6.17-3.99,11.92-3.79,19.07-3.77l-.02.05h-.02Z"/>
  <path d="M129.46,403.38h7.31c1.36,0,2.71,0,4.06-.01,3.73-.01,7.45-.01,11.18,0,4.02,0,8.03,0,12.06-.02,7.87-.01,15.75-.02,23.62-.02,6.4,0,12.8,0,19.2-.01,18.14-.02,36.28-.02,54.42-.02h5.94c15.87,0,31.74-.02,47.61-.04,16.3-.03,32.59-.04,48.88-.04,9.15,0,18.3,0,27.44-.02,7.79-.02,15.58-.02,23.37,0h11.92c3.64-.01,7.28-.01,10.92,0,1.32,0,2.63,0,3.95-.01,8.78-.06,16.48.49,23.22,7.91,5.63,7.38,6.94,15.21,6.74,24.89-.36,7.53-3.11,13.82-7.85,18.85-5.13,4.55-9.86,6.51-16.34,6.52h-7.31c-1.36,0-2.71,0-4.06.01-3.73.01-7.45.01-11.18,0-4.02,0-8.03,0-12.06.02-7.87.01-15.75.02-23.62.02-6.4,0-12.8,0-19.2.01-18.14.02-36.28.02-54.42.02h-5.94c-15.87,0-31.74.02-47.61.04-16.3.03-32.59.04-48.88.04-9.15,0-18.3,0-27.44.02-7.79.02-15.58.02-23.37,0h-11.92c-3.64.01-7.28.01-10.92,0-1.32,0-2.63,0-3.95.01-8.78.06-16.48-.49-23.22-7.91-5.63-7.38-6.94-15.21-6.74-24.89.36-7.53,3.11-13.82,7.85-18.85,5.13-4.55,9.86-6.51,16.34-6.52h0Z"/>
  <path d="M129.42,262.58c.56,0,1.12,0,1.69,0h5.62c1.36,0,2.71,0,4.06,0,3.73,0,7.45,0,11.18,0,4.02,0,8.03,0,12.06-.02,7.87,0,15.75-.02,23.62-.02,6.4,0,12.8,0,19.2,0,18.14-.02,36.28-.02,54.42-.02h5.94c15.87,0,31.74-.02,47.61-.04,16.3-.03,32.59-.04,48.88-.04,9.15,0,18.3,0,27.44-.02,7.79-.02,15.58-.02,23.37,0h11.92c3.64,0,7.28,0,10.92,0,1.32,0,2.63,0,3.95,0,8.78-.06,16.48.49,23.22,7.91,5.63,7.38,6.94,15.21,6.74,24.89-.36,7.53-3.11,13.82-7.85,18.85-5.13,4.55-9.86,6.51-16.34,6.52h-7.31c-1.36,0-2.71,0-4.06.01-3.73.01-7.45.01-11.18,0-4.02,0-8.03,0-12.06.02-7.87.01-15.75.02-23.62.02-6.4,0-12.8,0-19.2.01-18.14.02-36.28.02-54.42.02h-5.94c-15.87,0-31.74.02-47.61.04-16.3.03-32.59.04-48.88.04-9.15,0-18.3,0-27.44.02-7.79.02-15.58.02-23.37,0h-11.92c-3.64.01-7.28.01-10.92,0-1.32,0-2.63,0-3.95.01-8.78.06-16.48-.49-23.22-7.91-5.63-7.38-6.94-15.21-6.74-24.89.36-7.53,3.11-13.82,7.85-18.85,5.13-4.55,9.86-6.51,16.34-6.52h0Z"/>
  <path d="M129.42,121.77h7.31c1.36,0,2.71,0,4.06-.01,3.73-.01,7.45-.01,11.18,0,4.02,0,8.03,0,12.06-.02,7.87-.01,15.75-.02,23.62-.02,6.4,0,12.8,0,19.2-.01,18.14-.02,36.28-.02,54.42-.02h5.94c15.87,0,31.74-.02,47.61-.04,16.3-.03,32.59-.04,48.88-.04,9.15,0,18.3,0,27.44-.02,7.79-.02,15.58-.02,23.37,0h11.92c3.64-.01,7.28-.01,10.92,0,1.32,0,2.63,0,3.95-.01,8.78-.06,16.48.49,23.22,7.91,5.63,7.38,6.94,15.21,6.74,24.89-.36,7.53-3.11,13.82-7.85,18.85-5.13,4.55-9.86,6.51-16.34,6.52h-7.31c-1.36,0-2.71,0-4.06,0-3.73,0-7.45,0-11.18,0-4.02,0-8.03,0-12.06.02-7.87,0-15.75.02-23.62.02-6.4,0-12.8,0-19.2,0-18.14.02-36.28.02-54.42.02h-5.94c-15.87,0-31.74.02-47.61.04-16.3.03-32.59.04-48.88.04-9.15,0-18.3,0-27.44.02-7.79.02-15.58.02-23.37,0h-11.92c-3.64,0-7.28,0-10.92,0-1.32,0-2.63,0-3.95,0-8.78.06-16.48-.49-23.22-7.91-5.63-7.38-6.94-15.21-6.74-24.89.36-7.53,3.11-13.82,7.85-18.85,5.13-4.55,9.86-6.51,16.34-6.52h0Z"/>
</svg>