<?xml version="1.0" encoding="UTF-8"?>
<svg id="Layer_1" xmlns="http://www.w3.org/2000/svg" version="1.1" viewBox="0 0 512 512">
  <!-- Generator: Adobe Illustrator 29.5.1, SVG Export Plug-In . SVG Version: 2.1.0 Build 141)  -->
  <path d="M223.86,377.03c.9,0,1.81,0,2.73,0,3.01,0,6.03,0,9.05,0,2.16,0,4.33,0,6.49-.02,5.88-.02,11.75-.02,17.63-.02,4.29,0,8.58,0,12.87,0,11.54-.02,23.08-.02,34.62-.02h3.97c10.62,0,21.24-.02,31.87-.05,10.92-.03,21.83-.04,32.75-.04,6.13,0,12.25,0,18.37-.03,5.76-.02,11.52-.02,17.28,0,2.11,0,4.22,0,6.34,0,2.89-.02,5.78,0,8.67,0,.83-.01,1.67-.02,2.51-.03,8.05.09,15.26,2.65,21.2,8.36,6.81,7.79,8.39,16.05,8.14,26.26-.43,7.95-3.77,14.58-9.5,19.89-6.97,5.39-13.29,6.92-21.9,6.89-.9,0-1.81,0-2.74,0-3.02,0-6.03,0-9.06,0-2.16,0-4.33,0-6.49.02-5.88.02-11.76.02-17.64.02-4.29,0-8.59,0-12.88,0-11.54.02-23.09.02-34.63.02h-3.97c-10.63,0-21.25.02-31.88.05-10.93.03-21.84.04-32.77.04-6.13,0-12.25,0-18.39.03-5.77.02-11.52.02-17.29,0-2.11,0-4.23,0-6.34,0-2.89.02-5.78,0-8.67,0-.83,0-1.67.02-2.52.03-8.7-.09-16.2-3.82-22.5-9.98-6.52-8.51-7.49-17.94-6.45-28.43,1.8-8.12,6.17-14.23,12.9-18.77,5.93-3.72,11.42-4.25,18.21-4.22h0Z"/>
  <path d="M223.86,225.41c.9,0,1.81,0,2.73,0,3.01,0,6.03,0,9.05,0,2.16,0,4.33,0,6.49-.02,5.88-.02,11.75-.02,17.63-.02,4.29,0,8.58,0,12.87,0,11.54-.02,23.08-.02,34.62-.02h1.98c.66,0,1.32,0,1.99,0,10.62,0,21.24-.02,31.87-.05,10.92-.03,21.83-.04,32.75-.04,6.13,0,12.25,0,18.37-.03,5.76-.02,11.52-.02,17.28,0,2.11,0,4.22,0,6.34,0,2.89-.02,5.78,0,8.67,0,.83-.01,1.67-.02,2.51-.03,8.05.09,15.26,2.65,21.2,8.36,6.81,7.79,8.39,16.05,8.14,26.26-.43,7.95-3.77,14.58-9.5,19.89-6.97,5.39-13.29,6.92-21.9,6.89-.9,0-1.81,0-2.74,0-3.02,0-6.03,0-9.06,0-2.16,0-4.33,0-6.49.02-5.88.02-11.76.02-17.64.02-4.29,0-8.59,0-12.88,0-11.54.02-23.09.02-34.63.02h-3.97c-10.63,0-21.25.02-31.88.05-10.93.03-21.84.04-32.77.04-6.13,0-12.25,0-18.39.03-5.77.02-11.52.02-17.29,0-2.11,0-4.23,0-6.34,0-2.89.02-5.78,0-8.67,0-.83,0-1.67.02-2.52.03-8.7-.09-16.2-3.82-22.5-9.98-6.52-8.51-7.49-17.94-6.45-28.43,1.8-8.12,6.17-14.23,12.9-18.77,5.93-3.72,11.42-4.25,18.21-4.22h0Z"/>
  <path d="M223.86,73.78c.9,0,1.81,0,2.73,0,3.01,0,6.03,0,9.05,0,2.16,0,4.33,0,6.49-.02,5.88-.02,11.75-.02,17.63-.02,4.29,0,8.58,0,12.87,0,11.54-.02,23.08-.02,34.62-.02h1.98c.66,0,1.32,0,1.99,0,10.62,0,21.24-.02,31.87-.05,10.92-.03,21.83-.04,32.75-.04,6.13,0,12.25,0,18.37-.03,5.76-.02,11.52-.02,17.28,0,2.11,0,4.22,0,6.34,0,2.89-.02,5.78,0,8.67,0,.83-.01,1.67-.02,2.51-.03,8.05.09,15.26,2.65,21.2,8.36,6.81,7.79,8.39,16.05,8.14,26.26-.43,7.95-3.77,14.58-9.5,19.89-6.97,5.39-13.29,6.92-21.9,6.89-.9,0-1.81,0-2.74,0-3.02,0-6.03,0-9.06,0-2.16,0-4.33,0-6.49.02-5.88.02-11.76.02-17.64.02-4.29,0-8.59,0-12.88,0-11.54.02-23.09.02-34.63.02h-3.97c-10.63,0-21.25.02-31.88.05-10.93.03-21.84.04-32.77.04-6.13,0-12.25,0-18.39.03-5.77.02-11.52.02-17.29,0-2.11,0-4.23,0-6.34,0-2.89.02-5.78,0-8.67,0-.83,0-1.67.02-2.52.03-8.7-.09-16.2-3.82-22.5-9.98-6.52-8.51-7.49-17.94-6.45-28.43,1.8-8.12,6.17-14.23,12.9-18.77,5.93-3.72,11.42-4.25,18.21-4.22h0Z"/>
  <path d="M79.07,355.67c.6,0,1.21,0,1.82-.02,1.98-.02,3.95-.02,5.93-.02,1.38,0,2.76,0,4.15-.02,2.89,0,5.79,0,8.69,0,3.69,0,7.39-.02,11.08-.05,2.86-.02,5.71-.02,8.57-.02,1.36,0,2.73,0,4.08-.02,8.54-.08,15.45.35,22.73,5.39,5.79,6.09,8.68,12.17,8.67,20.76,0,.62,0,1.24.02,1.88.02,2.04.02,4.08.02,6.11,0,1.42,0,2.85.02,4.27,0,2.99,0,5.97,0,8.96,0,3.81.02,7.62.05,11.43.02,2.95.02,5.89.02,8.83,0,1.4,0,2.81.02,4.21.07,9.32-1.1,15.94-3.52,19.86-.29.52-.6,1.04-.9,1.58-3.28,5.58-8.83,8.8-14.8,10.54-2.09.15-4.1.24-6.19.24-.6,0-1.21,0-1.82.02-1.98.02-3.96.02-5.94.02-1.38,0-2.77,0-4.15.02-2.9,0-5.8,0-8.71,0-3.7,0-7.41.02-11.11.05-2.87.02-5.72.02-8.59.02-1.36,0-2.73,0-4.09.02-9.06.08-15.5-1.13-19.31-3.62-.51-.3-1.01-.62-1.54-.93-5.43-3.37-8.56-9.09-10.24-15.23-.15-2.15-.23-4.21-.23-6.36,0-.62,0-1.23-.02-1.88-.02-2.04-.02-4.07-.02-6.1,0-1.42,0-2.84-.02-4.26,0-2.98,0-5.96,0-8.94,0-3.8-.02-7.6-.05-11.4-.02-2.94-.02-5.88-.02-8.81,0-1.4,0-2.81-.02-4.2-.07-9.51.27-17.87,6.9-25.18,5.45-5.04,11.2-7.14,18.52-7.13l.02-.03ZM79.18,381.76v51.71h50.27v-51.71h-50.27Z"/>
  <path d="M79.07,204.05c.6,0,1.21,0,1.82-.02,1.98-.02,3.95-.02,5.93-.02,1.38,0,2.76,0,4.15-.02,2.89,0,5.79,0,8.69,0,3.69,0,7.39-.02,11.08-.05,2.86-.02,5.71-.02,8.57-.02,1.36,0,2.73,0,4.08-.02,8.54-.08,15.45.35,22.73,5.39,5.79,6.09,8.68,12.17,8.67,20.76,0,.62,0,1.24.02,1.88.02,2.04.02,4.08.02,6.11,0,1.42,0,2.85.02,4.27,0,2.99,0,5.97,0,8.96,0,3.81.02,7.62.05,11.43.02,2.95.02,5.89.02,8.83,0,1.4,0,2.81.02,4.21.07,9.32-1.1,15.94-3.52,19.86-.29.52-.6,1.04-.9,1.58-3.28,5.58-8.83,8.8-14.8,10.54-2.09.15-4.1.24-6.19.24-.6,0-1.21,0-1.82.02-1.98.02-3.96.02-5.94.02-1.38,0-2.77,0-4.15.02-2.9,0-5.8,0-8.71,0-3.7,0-7.41.02-11.11.05-2.87.02-5.72.02-8.59.02-1.36,0-2.73,0-4.09.02-9.06.08-15.5-1.13-19.31-3.62-.51-.3-1.01-.62-1.54-.93-5.43-3.37-8.56-9.09-10.24-15.23-.15-2.15-.23-4.21-.23-6.36,0-.62,0-1.23-.02-1.88-.02-2.04-.02-4.07-.02-6.1,0-1.42,0-2.84-.02-4.26,0-2.98,0-5.96,0-8.94,0-3.8-.02-7.6-.05-11.4-.02-2.94-.02-5.88-.02-8.81,0-1.4,0-2.81-.02-4.2-.07-9.51.27-17.87,6.9-25.18,5.45-5.04,11.2-7.14,18.52-7.13l.02-.03ZM79.18,230.14v51.71h50.27v-51.71h-50.27Z"/>
  <path d="M79.07,52.42c.6,0,1.21,0,1.82-.02,1.98-.02,3.95-.02,5.93-.02,1.38,0,2.76,0,4.15-.02,2.89,0,5.79,0,8.69,0,3.69,0,7.39-.02,11.08-.05,2.86-.02,5.71-.02,8.57-.02,1.36,0,2.73,0,4.08-.02,8.54-.08,15.45.35,22.73,5.39,5.79,6.09,8.68,12.17,8.67,20.76,0,.62,0,1.24.02,1.88.02,2.04.02,4.08.02,6.11,0,1.42,0,2.85.02,4.27,0,2.99,0,5.97,0,8.96,0,3.81.02,7.62.05,11.43.02,2.95.02,5.89.02,8.83,0,1.4,0,2.81.02,4.21.07,9.32-1.1,15.94-3.52,19.86-.29.52-.6,1.04-.9,1.58-3.28,5.58-8.83,8.8-14.8,10.54-2.09.15-4.1.24-6.19.24-.6,0-1.21,0-1.82.02-1.98.02-3.96.02-5.94.02-1.38,0-2.77,0-4.15.02-2.9,0-5.8,0-8.71,0-3.7,0-7.41.02-11.11.05-2.87.02-5.72.02-8.59.02-1.36,0-2.73,0-4.09.02-9.06.08-15.5-1.13-19.31-3.62-.51-.3-1.01-.62-1.54-.93-5.43-3.37-8.56-9.09-10.24-15.23-.15-2.15-.23-4.21-.23-6.36,0-.62,0-1.23-.02-1.88-.02-2.04-.02-4.07-.02-6.1,0-1.42,0-2.84-.02-4.26,0-2.98,0-5.96,0-8.94,0-3.8-.02-7.6-.05-11.4-.02-2.94-.02-5.88-.02-8.81,0-1.4,0-2.81-.02-4.2-.07-9.51.27-17.87,6.9-25.18,5.45-5.04,11.2-7.14,18.52-7.13l.02-.03ZM79.18,78.51v51.71h50.27v-51.71h-50.27Z"/>
</svg>