<?xml version="1.0" encoding="UTF-8"?>
<svg id="Layer_1" xmlns="http://www.w3.org/2000/svg" version="1.1" viewBox="0 0 512 512">
  <!-- Generator: Adobe Illustrator 29.5.1, SVG Export Plug-In . SVG Version: 2.1.0 Build 141)  -->
  <path d="M286.44,43.04c12.61,9.88,21.52,23.17,24.12,39.43.08,1.97.11,3.95.11,5.93,0,.59,0,1.18,0,1.78,0,1.97,0,3.95,0,5.92,0,1.43,0,2.86,0,4.28,0,3.93.01,7.85.01,11.78,0,4.23.01,8.47.02,12.7.02,10.23.03,20.45.03,30.68,0,4.82,0,9.64.01,14.45.01,16.02.03,32.04.03,48.05,0,4.16,0,8.31,0,12.47,0,1.03,0,2.07,0,3.13,0,16.73.03,33.46.06,50.19.03,17.18.04,34.36.05,51.54,0,9.64,0,19.29.03,28.93.02,8.21.03,16.43.02,24.64,0,4.19,0,8.38.01,12.57.02,3.84.01,7.68,0,11.52,0,1.38,0,2.77.01,4.15.11,16.72-4.52,31.54-15.74,44.02-11.95,12.4-25.97,18.49-42.91,18.6-17.04.02-31.13-5.65-43.37-18.06-9.52-10.41-15.91-23.4-15.93-37.88,0-.59,0-1.18,0-1.78,0-1.97,0-3.95,0-5.92,0-1.43,0-2.86,0-4.28,0-3.93-.01-7.85-.01-11.78,0-4.23-.01-8.47-.02-12.7-.02-10.23-.03-20.45-.03-30.68,0-4.82,0-9.64-.01-14.45-.01-16.02-.03-32.04-.03-48.05,0-4.16,0-8.31,0-12.47,0-1.03,0-2.07,0-3.13,0-16.73-.03-33.46-.06-50.19-.03-17.18-.04-34.36-.05-51.54,0-9.64,0-19.29-.03-28.93-.02-8.21-.03-16.43-.02-24.64,0-4.19,0-8.38-.01-12.57-.02-3.84-.01-7.68,0-11.52,0-1.38,0-2.77-.01-4.15-.11-16.72,4.52-31.54,15.74-44.02,20.73-21.51,53.43-25.23,77.98-8.02ZM233.13,77.23c-3.47,5.16-5.21,8.8-5.22,15.19,0,.57,0,1.14,0,1.73,0,1.93,0,3.86,0,5.79,0,1.39,0,2.79-.01,4.18-.01,3.84-.01,7.68-.02,11.51,0,4.14-.01,8.27-.02,12.41-.02,9.99-.03,19.98-.04,29.98,0,2.82,0,5.64,0,8.47-.02,17.52-.04,35.04-.05,52.56,0,4.06,0,8.12,0,12.18,0,1.01,0,2.02,0,3.06-.01,16.34-.04,32.68-.07,49.03-.04,16.77-.06,33.55-.06,50.32,0,9.42-.01,18.84-.04,28.26-.02,8.02-.03,16.04-.02,24.07,0,4.09,0,8.19-.02,12.28-.02,3.75-.02,7.5,0,11.25,0,1.35,0,2.71-.02,4.06-.09,9.62,1.21,16.65,7.56,24,5.97,5.54,11.85,6.87,19.83,6.61,7.3-.97,12.89-5.02,17.39-10.86,4.24-6.67,3.88-13.93,3.84-21.59,0-1.4.01-2.79.02-4.19.02-3.83.01-7.65,0-11.48,0-4.13,0-8.26.02-12.39.02-8.09.02-16.18.01-24.27,0-6.57,0-13.15,0-19.72,0-.94,0-1.87,0-2.84,0-1.9,0-3.8,0-5.71.01-17.83,0-35.66,0-53.49-.01-16.31,0-32.62.02-48.92.03-16.75.03-33.5.03-50.25,0-1.9,0-3.79,0-5.69,0-.93,0-1.86,0-2.83,0-6.57,0-13.13.02-19.7.01-8,.01-16.01,0-24.01,0-4.08-.01-8.16,0-12.25.01-3.74,0-7.48-.01-11.22,0-1.35,0-2.7,0-4.05.07-9.6-1.23-16.64-7.57-23.97-5.97-5.54-11.85-6.86-19.83-6.61-6.4.86-11.62,3.99-15.69,9.12Z"/>
  <path d="M453.64,178.45c10.85,11.52,16.3,25.59,16.25,41.48,0,.89,0,1.79.01,2.7.01,2.97,0,5.95,0,8.92,0,2.14.01,4.28.02,6.42.01,5.2.02,10.4.02,15.6,0,4.23,0,8.46,0,12.69.01,12.01.02,24.03.02,36.04,0,.65,0,1.29,0,1.96,0,.65,0,1.29,0,1.96,0,10.48.02,20.97.04,31.45.02,10.79.04,21.57.03,32.36,0,6.05,0,12.09.02,18.14.02,5.69.02,11.38,0,17.07,0,2.08,0,4.16.01,6.25.09,20.31-3.33,36.84-17.77,51.82-14.26,13.73-30.17,16.98-49.12,16.38-14.56-.93-27.39-9.48-37.13-20.12-9.35-11.11-13.95-23.95-13.95-38.54,0-.89,0-1.78,0-2.7,0-2.98-.01-5.97-.02-8.95,0-2.14-.01-4.28-.02-6.42-.02-6.42-.03-12.84-.03-19.27,0-3.03,0-6.06-.01-9.09-.01-10.08-.03-20.15-.03-30.23,0-2.61,0-5.23,0-7.84,0-.65,0-1.3,0-1.97,0-10.51-.03-21.01-.06-31.52-.03-10.8-.04-21.6-.05-32.41,0-6.06,0-12.12-.03-18.18-.02-5.71-.02-11.41-.01-17.12,0-2.09,0-4.17-.02-6.26-.11-20.38,3.35-36.72,17.7-51.83,23.94-23.29,60.75-22.34,84.11,1.18ZM394.26,203.12c-3.87,4.6-7.22,9.34-7.24,15.58,0,.73,0,1.46-.01,2.22,0,.8,0,1.61,0,2.44,0,.85,0,1.71-.01,2.59-.01,2.88-.02,5.76-.02,8.63,0,2.06-.01,4.12-.02,6.17-.02,6.19-.03,12.37-.04,18.56,0,2.33,0,4.66-.01,6.99-.02,10.28-.04,20.56-.05,30.83,0,2.52,0,5.03,0,7.55,0,.63,0,1.25,0,1.89-.01,10.12-.04,20.24-.07,30.36-.04,10.4-.06,20.79-.06,31.19,0,5.83-.01,11.67-.04,17.5-.03,5.49-.03,10.98-.02,16.47,0,2.01,0,4.03-.02,6.04-.02,2.75-.01,5.51,0,8.26-.01.79-.02,1.58-.04,2.4.09,7.37,2.79,13.26,7.57,18.73,5.97,5.54,11.85,6.86,19.83,6.61,6.4-.86,11.62-3.99,15.69-9.12,5.48-7.33,6.22-15.21,6.17-24.22q0-1.22,0-2.46c0-2.69,0-5.38,0-8.07,0-1.94,0-3.88,0-5.82,0-5.25,0-10.5,0-15.75,0-5.5,0-11,0-16.5,0-9.83,0-19.66-.01-29.49,0-8.9,0-17.8,0-26.69,0-10.35.01-20.7,0-31.05,0-5.47,0-10.95,0-16.42,0-5.15,0-10.29,0-15.44,0-1.88,0-3.77,0-5.65,0-2.58,0-5.16,0-7.74q0-1.11.01-2.24c-.06-9.09-1.45-17.91-7.87-24.61-10.53-9.1-23.33-8.92-33.73.23Z"/>
  <path d="M132.39,303.41c9.79,9.45,18.48,23.27,19.15,37.43.04,2.28.06,4.55.07,6.83,0,.87.01,1.73.02,2.62.02,2.86.03,5.73.04,8.59,0,.98,0,1.96.01,2.98.02,5.2.03,10.41.04,15.61,0,5.35.04,10.7.07,16.05.02,4.13.03,8.27.03,12.4,0,1.97.01,3.94.03,5.91.15,19.66-3.07,35.35-16.55,50.25-11.56,12-25.76,17.62-42.06,17.73-17.08.02-31.01-5.69-43.34-18-10.63-11.5-15.97-24.96-15.98-40.68,0-.87,0-1.74-.01-2.63-.01-2.87-.02-5.74-.02-8.62,0-2,0-4.01-.01-6.01,0-4.2-.01-8.41-.02-12.61,0-5.36-.03-10.73-.05-16.09-.02-4.14-.02-8.28-.02-12.42,0-1.98,0-3.95-.02-5.93-.07-12.62.12-23.77,5.83-35.24.29-.59.58-1.17.88-1.78,7.26-13.94,19.96-23.81,34.42-28.77,20.15-5.96,41.39-1.52,57.52,12.37ZM73.57,333.57c-5.05,6.83-5.63,14.55-5.62,22.9,0,.67,0,1.34,0,2.02,0,2.19,0,4.38-.01,6.57,0,1.54,0,3.07,0,4.61,0,3.21,0,6.43,0,9.64,0,4.1-.01,8.2-.03,12.3,0,3.17-.01,6.34-.01,9.51,0,1.51,0,3.02-.01,4.53q-.16,16.61,7.01,31.12c6.45,5.63,12.38,7.45,20.78,7.31,6.53-.7,11.81-4.05,16.16-9.03,4.14-5.45,5.26-11.12,5.22-17.88,0-.78.02-1.57.03-2.38.02-2.57.02-5.14.02-7.71,0-1.8.01-3.61.02-5.41.01-3.77.01-7.54,0-11.31,0-4.81.02-9.62.06-14.43.03-3.72.03-7.44.02-11.17,0-1.77,0-3.54.03-5.32q.15-15.52-7.6-28.48c-4.91-4.44-10.45-6.28-16.86-7.1-7.71.99-13.96,3.66-19.17,9.69Z"/>
</svg>