<?xml version="1.0" encoding="UTF-8"?>
<svg id="Layer_1" xmlns="http://www.w3.org/2000/svg" version="1.1" viewBox="0 0 512 512">
  <!-- Generator: Adobe Illustrator 29.5.1, SVG Export Plug-In . SVG Version: 2.1.0 Build 141)  -->
  <path d="M69.71,41.64c5.14,3.75,8.61,8.15,10.62,14.1.23,2.25.35,4.28.32,6.52q0,.95,0,1.92c0,2.12,0,4.24-.02,6.35,0,1.53,0,3.07,0,4.6,0,4.22,0,8.43-.02,12.65-.01,4.55,0,9.09,0,13.64,0,7.88,0,15.75-.02,23.63-.02,11.39-.03,22.78-.03,34.16,0,18.48-.02,36.95-.05,55.43-.02,17.95-.04,35.9-.05,53.85,0,1.11,0,2.21,0,3.35,0,5.55,0,11.1,0,16.65-.03,46.04-.07,92.09-.13,138.13q1.21,0,2.44,0c47.71-.1,95.42-.17,143.14-.21,5.73,0,11.46-.01,17.18-.02,1.14,0,2.28,0,3.46,0,18.47-.02,36.94-.05,55.4-.09,18.95-.04,37.9-.06,56.84-.07,11.69,0,23.39-.02,35.08-.06,8.02-.02,16.03-.03,24.05-.02,4.63,0,9.25,0,13.88-.02,4.24-.02,8.47-.02,12.71,0,1.53,0,3.06,0,4.59-.02,9.07-.07,16.9.13,23.9,6.45,5.31,5.4,7.03,9.88,7.32,17.26-.17,6.87-1.66,11.65-6.44,16.76-5.64,5.12-10.97,7.13-18.66,7.07-.7,0-1.4,0-2.12.01-2.35.01-4.7,0-7.05,0-1.7,0-3.4,0-5.1.02-4.67.01-9.35.01-14.02,0-5.04,0-10.08.01-15.12.02-9.88.02-19.75.02-29.63.02-8.03,0-16.06,0-24.08,0-2.31,0-4.62,0-6.93,0-1.15,0-2.3,0-3.49,0-15.58.01-31.16.02-46.74.01-.61,0-1.22,0-1.85,0-3.09,0-6.18,0-9.26,0-.61,0-1.23,0-1.86,0-1.24,0-2.48,0-3.72,0-19.29,0-38.59,0-57.88.04-21.68.03-43.36.05-65.04.04-11.48,0-22.96,0-34.43.02-9.77.02-19.54.02-29.32,0-4.99,0-9.97,0-14.96,0-4.57.02-9.13.01-13.7,0-1.65,0-3.3,0-4.95.01q-17.6.11-24.84-6.48c-5.31-5.36-7.29-10.64-7.22-18.01,0-.68,0-1.36-.01-2.06-.01-2.28,0-4.56,0-6.84,0-1.65,0-3.3-.02-4.95-.01-4.54-.01-9.08,0-13.61,0-4.89-.01-9.79-.02-14.68-.02-9.59-.02-19.18-.02-28.76,0-7.79,0-15.59,0-23.38,0-2.24,0-4.49,0-6.73,0-1.12,0-2.23,0-3.38-.01-15.12-.02-30.25-.01-45.37q0-.89,0-1.79c0-3,0-5.99,0-8.99,0-.6,0-1.19,0-1.8,0-1.2,0-2.41,0-3.61,0-18.73,0-37.46-.04-56.19-.03-21.05-.05-42.09-.04-63.14,0-11.14,0-22.28-.02-33.43-.02-9.49-.02-18.97,0-28.46,0-4.84,0-9.68,0-14.52-.02-4.43-.01-8.86,0-13.29,0-1.6,0-3.2-.01-4.81q-.12-17.05,6.66-24.11c8.53-7.93,20.91-9.8,31.36-3.82Z"/>
  <path d="M146.88,219.31c.79,0,1.59-.01,2.4-.02,2.65-.01,5.31-.02,7.96-.02,1.9,0,3.81-.02,5.71-.03,5.17-.02,10.34-.03,15.52-.04,3.23,0,6.47-.01,9.7-.02,10.12-.02,102.75-.04,112.88-.05,1.15,0,2.3,0,3.49,0,.58,0,1.15,0,1.75,0,9.93,0,19.85-.04,29.78-.08,9.03-.04,18.06-.05,27.09-.06,5.39,0,10.78-.01,16.17-.04,5.07-.03,10.15-.03,15.22-.02,1.86,0,3.71,0,5.57-.02q18.81-.16,26.76,5.72c5.54,5.49,8.1,10.69,8.25,18.46-.15,7.88-2.64,12.93-8.42,18.41-5.76,5.13-13.63,5.95-21.15,5.89-.78,0-1.55,0-2.35.01-2.57.01-5.15,0-7.72,0-1.86,0-3.71,0-5.57.01-5.02.01-10.05,0-15.07,0-5.27,0-10.53,0-15.8,0-8.84,0-17.69,0-26.53-.01-10.21-.01-20.42,0-30.64,0-8.78.01-100.07.01-108.85,0-5.24,0-10.48,0-15.72,0-4.93,0-9.85,0-14.78-.01-1.8,0-3.61,0-5.41,0-2.47,0-4.94,0-7.41-.01-.71,0-1.41.01-2.14.02-8.76-.09-15.39-2.44-21.67-8.39-4.89-5.57-6.08-11.62-5.81-18.84,1.06-6.75,4.19-12.18,9.62-16.5,5.43-3.84,10.64-4.39,17.14-4.38Z"/>
  <path d="M153.32,310.77c1.24,0,2.49-.01,3.73-.02,3.35-.02,6.7,0,10.05,0,3.52,0,7.04,0,10.57,0,5.91,0,11.82,0,17.74.02,6.81.02,13.63.01,20.44,0,5.87-.02,90.94.39,96.81.4,3.5,0,7,0,10.49,0,3.29,0,6.58,0,9.87.02,1.77,0,3.54,0,5.3-.01,8.64.08,16.11,1.21,22.69,6.98,5.67,6.16,7.33,11.89,7.06,20.15-.95,6.47-3.79,12.11-9.08,16.24-7.29,4.91-14.57,4.99-23.13,4.96-1.26,0-2.52.01-3.79.02-3.41.02-6.82.01-10.23,0-2.85,0-5.71,0-8.56,0-6.74.01-92.67-.4-99.41-.41-6.94,0-13.87,0-20.81.02-5.97.02-11.94.02-17.91.02-3.56,0-7.12,0-10.68.01-3.35.01-6.7,0-10.05,0-1.22,0-2.45,0-3.67,0-8.51.06-17.19-.65-23.74-6.62-5.21-6.28-7.31-12.67-6.91-20.69,1.13-7.1,5.01-12.99,10.94-17.26,7.25-3.59,14.27-3.88,22.27-3.83Z"/>
  <path d="M151.1,127.33c1.3,0,2.59-.01,3.89-.02,3.5-.02,6.99-.01,10.49,0,3.67.01,7.35,0,11.02,0,6.17,0,49.25,0,55.41.02,7.11.02,14.23.02,21.34,0,6.13-.02,12.25-.02,18.38-.01,3.65,0,7.3,0,10.95,0,3.43-.01,6.87,0,10.3.02,1.25,0,2.51,0,3.76,0,8.49-.06,15.35.74,21.82,6.46,5.25,5.28,6.99,10.18,7.2,17.45-.22,7.27-1.95,12.16-7.2,17.45-7,6.19-14.58,6.51-23.66,6.44-1.3,0-2.59.01-3.89.02-3.5.02-6.99.01-10.49,0-3.67-.01-7.35,0-11.02,0-6.17,0-12.34,0-18.5-.02-7.11-.02-14.23-.02-21.34,0-6.13.02-49.16.02-55.29.01-3.65,0-7.3,0-10.95,0-3.43.01-6.87,0-10.3-.02-1.25,0-2.51,0-3.76,0-8.49.06-15.35-.74-21.82-6.46-5.25-5.28-6.99-10.18-7.2-17.45.22-7.27,1.95-12.16,7.2-17.45,7-6.19,14.58-6.51,23.66-6.44Z"/>
</svg>